<svg width="96" height="40" viewBox="0 0 96 40" fill="none" xmlns="http://www.w3.org/2000/svg">
<g filter="url(#filter0_d_702_899)">
<rect x="4" y="4" width="88" height="32" rx="16" fill="#F8F2F8" shape-rendering="crispEdges"/>
<mask id="mask0_702_899" style="mask-type:alpha" maskUnits="userSpaceOnUse" x="19" y="11" width="19" height="18">
<rect x="19.5" y="11" width="18" height="18" fill="#D9D9D9"/>
</mask>
<g mask="url(#mask0_702_899)">
<path d="M25.125 27.5C24.4 27.5 23.7812 27.2438 23.2687 26.7313C22.7562 26.2188 22.5 25.6 22.5 24.875V15.125C22.5 14.4 22.7562 13.7812 23.2687 13.2687C23.7812 12.7562 24.4 12.5 25.125 12.5H34.5V23.75C34.1875 23.75 33.9219 23.8594 33.7031 24.0781C33.4844 24.2969 33.375 24.5625 33.375 24.875C33.375 25.1875 33.4844 25.4531 33.7031 25.6719C33.9219 25.8906 34.1875 26 34.5 26V27.5H25.125ZM25.5 22.25H27V14H25.5V22.25ZM25.125 26H32.1187C32.0437 25.825 31.9844 25.6469 31.9406 25.4656C31.8969 25.2844 31.875 25.0875 31.875 24.875C31.875 24.675 31.8938 24.4813 31.9312 24.2938C31.9688 24.1063 32.0312 23.925 32.1187 23.75H25.125C24.8 23.75 24.5312 23.8594 24.3187 24.0781C24.1062 24.2969 24 24.5625 24 24.875C24 25.2 24.1062 25.4688 24.3187 25.6813C24.5312 25.8938 24.8 26 25.125 26Z" fill="black"/>
</g>
<path d="M43.6186 25.5V15.3182H47.3473C48.0698 15.3182 48.6681 15.4375 49.142 15.6761C49.616 15.9115 49.9706 16.2313 50.206 16.6357C50.4413 17.0367 50.5589 17.4891 50.5589 17.9929C50.5589 18.4171 50.4811 18.7751 50.3253 19.0668C50.1695 19.3551 49.9607 19.5871 49.6989 19.7628C49.4403 19.9351 49.1553 20.0611 48.8438 20.1406V20.2401C49.1818 20.2566 49.5116 20.366 49.8331 20.5682C50.1579 20.767 50.4264 21.0504 50.6385 21.4183C50.8506 21.7862 50.9567 22.2337 50.9567 22.7607C50.9567 23.281 50.834 23.7483 50.5888 24.1626C50.3468 24.5736 49.9723 24.9001 49.4652 25.142C48.9581 25.3807 48.3101 25.5 47.5213 25.5H43.6186ZM45.1548 24.1825H47.3722C48.108 24.1825 48.6349 24.04 48.9531 23.755C49.2713 23.4699 49.4304 23.1136 49.4304 22.6861C49.4304 22.3646 49.3492 22.0696 49.1868 21.8011C49.0244 21.5327 48.7924 21.3189 48.4908 21.1598C48.1925 21.0007 47.8378 20.9212 47.4268 20.9212H45.1548V24.1825ZM45.1548 19.723H47.2131C47.5578 19.723 47.8677 19.6567 48.1428 19.5241C48.4212 19.3916 48.6416 19.206 48.804 18.9673C48.9697 18.7254 49.0526 18.4403 49.0526 18.1122C49.0526 17.6913 48.9051 17.3383 48.6101 17.0533C48.3151 16.7682 47.8627 16.6257 47.2528 16.6257H45.1548V19.723ZM55.8761 25.6541C55.1602 25.6541 54.5354 25.4901 54.0018 25.1619C53.4682 24.8338 53.0539 24.3748 52.7589 23.7848C52.4639 23.1948 52.3164 22.5054 52.3164 21.7166C52.3164 20.9245 52.4639 20.2318 52.7589 19.6385C53.0539 19.0452 53.4682 18.5845 54.0018 18.2564C54.5354 17.9283 55.1602 17.7642 55.8761 17.7642C56.592 17.7642 57.2167 17.9283 57.7504 18.2564C58.284 18.5845 58.6983 19.0452 58.9933 19.6385C59.2882 20.2318 59.4357 20.9245 59.4357 21.7166C59.4357 22.5054 59.2882 23.1948 58.9933 23.7848C58.6983 24.3748 58.284 24.8338 57.7504 25.1619C57.2167 25.4901 56.592 25.6541 55.8761 25.6541ZM55.881 24.4062C56.3451 24.4062 56.7295 24.2836 57.0344 24.0384C57.3394 23.7931 57.5647 23.4666 57.7106 23.0589C57.8597 22.6513 57.9343 22.2022 57.9343 21.7116C57.9343 21.2244 57.8597 20.777 57.7106 20.3693C57.5647 19.9583 57.3394 19.6286 57.0344 19.38C56.7295 19.1314 56.3451 19.0071 55.881 19.0071C55.4137 19.0071 55.0259 19.1314 54.7177 19.38C54.4128 19.6286 54.1857 19.9583 54.0366 20.3693C53.8907 20.777 53.8178 21.2244 53.8178 21.7116C53.8178 22.2022 53.8907 22.6513 54.0366 23.0589C54.1857 23.4666 54.4128 23.7931 54.7177 24.0384C55.0259 24.2836 55.4137 24.4062 55.881 24.4062ZM64.3116 25.6541C63.5957 25.6541 62.9709 25.4901 62.4373 25.1619C61.9037 24.8338 61.4894 24.3748 61.1944 23.7848C60.8994 23.1948 60.752 22.5054 60.752 21.7166C60.752 20.9245 60.8994 20.2318 61.1944 19.6385C61.4894 19.0452 61.9037 18.5845 62.4373 18.2564C62.9709 17.9283 63.5957 17.7642 64.3116 17.7642C65.0275 17.7642 65.6523 17.9283 66.1859 18.2564C66.7195 18.5845 67.1338 19.0452 67.4288 19.6385C67.7238 20.2318 67.8713 20.9245 67.8713 21.7166C67.8713 22.5054 67.7238 23.1948 67.4288 23.7848C67.1338 24.3748 66.7195 24.8338 66.1859 25.1619C65.6523 25.4901 65.0275 25.6541 64.3116 25.6541ZM64.3166 24.4062C64.7806 24.4062 65.1651 24.2836 65.47 24.0384C65.7749 23.7931 66.0003 23.4666 66.1461 23.0589C66.2953 22.6513 66.3699 22.2022 66.3699 21.7116C66.3699 21.2244 66.2953 20.777 66.1461 20.3693C66.0003 19.9583 65.7749 19.6286 65.47 19.38C65.1651 19.1314 64.7806 19.0071 64.3166 19.0071C63.8493 19.0071 63.4615 19.1314 63.1532 19.38C62.8483 19.6286 62.6213 19.9583 62.4721 20.3693C62.3263 20.777 62.2534 21.2244 62.2534 21.7116C62.2534 22.2022 62.3263 22.6513 62.4721 23.0589C62.6213 23.4666 62.8483 23.7931 63.1532 24.0384C63.4615 24.2836 63.8493 24.4062 64.3166 24.4062ZM70.8977 22.9098L70.8878 21.0952H71.1463L74.1889 17.8636H75.9688L72.4986 21.5426H72.2649L70.8977 22.9098ZM69.5305 25.5V15.3182H71.017V25.5H69.5305ZM74.353 25.5L71.6186 21.8707L72.6428 20.8317L76.1776 25.5H74.353Z" fill="black"/>
</g>
<defs>
<filter id="filter0_d_702_899" x="0" y="0" width="96" height="40" filterUnits="userSpaceOnUse" color-interpolation-filters="sRGB">
<feFlood flood-opacity="0" result="BackgroundImageFix"/>
<feColorMatrix in="SourceAlpha" type="matrix" values="0 0 0 0 0 0 0 0 0 0 0 0 0 0 0 0 0 0 127 0" result="hardAlpha"/>
<feOffset/>
<feGaussianBlur stdDeviation="2"/>
<feComposite in2="hardAlpha" operator="out"/>
<feColorMatrix type="matrix" values="0 0 0 0 0 0 0 0 0 0 0 0 0 0 0 0 0 0 0.25 0"/>
<feBlend mode="normal" in2="BackgroundImageFix" result="effect1_dropShadow_702_899"/>
<feBlend mode="normal" in="SourceGraphic" in2="effect1_dropShadow_702_899" result="shape"/>
</filter>
</defs>
</svg>
