<svg width="27" height="27" viewBox="0 0 27 27" fill="none" xmlns="http://www.w3.org/2000/svg">
<circle cx="13.5" cy="13.5" r="13.5" fill="#797979"/>
<mask id="mask0_60_10" style="mask-type:alpha" maskUnits="userSpaceOnUse" x="7" y="7" width="14" height="14">
<rect x="7" y="7" width="14" height="14" rx="7" fill="white"/>
</mask>
<g mask="url(#mask0_60_10)">
<path d="M13.9998 17.2083C14.729 17.2083 15.3488 16.9531 15.8592 16.4427C16.3696 15.9323 16.6248 15.3125 16.6248 14.5833C16.6248 13.8542 16.3696 13.2344 15.8592 12.724C15.3488 12.2135 14.729 11.9583 13.9998 11.9583C13.2707 11.9583 12.6509 12.2135 12.1405 12.724C11.63 13.2344 11.3748 13.8542 11.3748 14.5833C11.3748 15.3125 11.63 15.9323 12.1405 16.4427C12.6509 16.9531 13.2707 17.2083 13.9998 17.2083ZM13.9998 16.0417C13.5915 16.0417 13.2464 15.9007 12.9644 15.6188C12.6825 15.3368 12.5415 14.9917 12.5415 14.5833C12.5415 14.175 12.6825 13.8299 12.9644 13.5479C13.2464 13.266 13.5915 13.125 13.9998 13.125C14.4082 13.125 14.7533 13.266 15.0353 13.5479C15.3172 13.8299 15.4582 14.175 15.4582 14.5833C15.4582 14.9917 15.3172 15.3368 15.0353 15.6188C14.7533 15.9007 14.4082 16.0417 13.9998 16.0417ZM9.33317 19.25C9.01234 19.25 8.73768 19.1358 8.50921 18.9073C8.28074 18.6788 8.1665 18.4042 8.1665 18.0833V11.0833C8.1665 10.7625 8.28074 10.4878 8.50921 10.2594C8.73768 10.0309 9.01234 9.91667 9.33317 9.91667H10.376C10.8826 9.91667 11.3663 9.70523 11.7103 9.33333C12.0543 8.96144 12.5379 8.75 13.0445 8.75H14.9552C15.4618 8.75 15.9454 8.96144 16.2894 9.33333C16.6334 9.70523 17.117 9.91667 17.6236 9.91667H18.6665C18.9873 9.91667 19.262 10.0309 19.4905 10.2594C19.7189 10.4878 19.8332 10.7625 19.8332 11.0833V18.0833C19.8332 18.4042 19.7189 18.6788 19.4905 18.9073C19.262 19.1358 18.9873 19.25 18.6665 19.25H9.33317Z" fill="white"/>
</g>
</svg>
