<svg width="188" height="120" viewBox="0 0 188 120" fill="none" xmlns="http://www.w3.org/2000/svg">
<g clip-path="url(#clip0_134_84)">
<path d="M0 77.9545C0 68.475 7.25092 60.7759 16.1512 60.7759C24.1271 60.7759 30.7585 66.9429 32.0646 75.033H26.2422C25.0613 70.1125 20.992 66.4866 16.1512 66.4866C10.4048 66.4866 5.71688 71.6259 5.71688 77.9545C5.71688 84.2741 10.4048 89.4125 16.1512 89.4125C20.9634 89.4125 25.013 85.825 26.2136 80.9616H32.0449C30.7111 89.0036 24.0985 95.1232 16.1512 95.1232C7.25092 95.1232 0 87.4232 0 77.9545Z" fill="black"/>
<path d="M37.1548 95.1527H30.822L43.8586 60.8393H49.8705L62.8598 95.1527H56.5269L53.2068 85.8482H40.5054L37.1548 95.1527ZM42.6428 79.9152H51.0881L46.8847 68.1402L42.6428 79.9152Z" fill="black"/>
<path d="M70.8276 95.1509H64.8819V60.842H73.6195L82.2051 85.7009L82.3311 86.0687L82.4581 85.7009L91.0437 60.842H99.7821V95.1509H93.8355V70.9866L85.4886 95.1509H79.1754L70.8276 70.9866V95.1509Z" fill="black"/>
<path d="M110.183 95.1062H104.242V60.8384H110.183V60.8411H120.992C126.234 60.8411 130.497 65.3339 130.497 70.858C130.497 76.3804 126.233 80.875 120.992 80.875H110.183V95.1062ZM110.183 66.5518V75.1643H120.992C123.081 75.1643 124.78 73.2321 124.78 70.858C124.78 68.4839 123.081 66.5518 120.992 66.5518H110.183Z" fill="black"/>
<path d="M157.393 82.1625C157.393 89.3875 151.845 95.2643 145.026 95.2643C138.206 95.2643 132.658 89.3866 132.658 82.1625V60.8393H138.375V82.1625C138.375 86.2375 141.358 89.5536 145.026 89.5536C148.692 89.5536 151.676 86.2375 151.676 82.1625V60.8393H157.393V82.1625Z" fill="black"/>
<path d="M160.289 70.9679C160.289 68.7125 161.394 66.2759 163.252 64.4295C164.892 62.792 167.864 60.8411 172.677 60.8411H172.724C176.774 60.85 179.956 62.0973 182.187 64.5527C185.13 67.7884 185.312 71.9768 185.264 73.508H179.538C179.566 73.1277 179.652 70.225 177.928 68.3687C176.832 67.1696 175.069 66.5607 172.715 66.5509H172.678C169.819 66.5509 168.17 67.5982 167.284 68.4732C166.408 69.3491 166.008 70.358 166.008 70.9571C166.008 71.9759 166.008 73.4982 172.62 75.6491L173.802 76.0205C179.072 77.7053 185.037 79.6089 185.389 84.8428C185.446 85.7277 185.446 88.8402 182.93 91.5241C180.701 93.9125 177.318 95.1214 172.868 95.1214C172.859 95.1214 172.849 95.1214 172.849 95.1214C169.229 95.1214 166.103 93.9036 163.806 91.5812C161.538 89.3071 160.261 86.1089 160.299 82.8161L166.017 82.883C165.998 84.625 166.684 86.3857 167.865 87.5661C169.085 88.7937 170.753 89.4116 172.849 89.4116H172.859C175.622 89.4116 177.661 88.7928 178.748 87.6321C179.758 86.5473 179.692 85.2812 179.682 85.2241C179.596 83.8634 174.507 82.2455 172.068 81.4652L170.857 81.075C163.357 78.6393 160.289 75.717 160.289 70.9679Z" fill="black"/>
<path d="M50.9012 43.4607C56.58 43.4607 61.1836 38.8629 61.1836 33.1911C61.1836 27.5193 56.58 22.9214 50.9012 22.9214C45.2224 22.9214 40.6189 27.5193 40.6189 33.1911C40.6189 38.8629 45.2224 43.4607 50.9012 43.4607Z" fill="#1D97D4"/>
<path d="M134.492 20.6625C140.205 20.6625 144.836 16.0371 144.836 10.3312C144.836 4.62546 140.205 0 134.492 0C128.78 0 124.148 4.62546 124.148 10.3312C124.148 16.0371 128.78 20.6625 134.492 20.6625Z" fill="#D31F34"/>
<path d="M128.359 30.7723C128.359 43.1554 118.309 53.1929 105.911 53.1929C105.868 53.1929 105.824 53.1929 105.782 53.192C103.915 53.1821 102.101 52.9438 100.369 52.5036V44.1455C101.676 44.7143 103.083 45.0947 104.557 45.2545C105.076 45.3116 105.604 45.3402 106.137 45.3402C114.128 45.3402 120.605 38.8705 120.605 30.8902C120.605 22.9098 114.128 16.4402 106.137 16.4402C106.071 16.4402 106.005 16.4402 105.94 16.4411C103.199 16.4786 100.641 17.2768 98.4698 18.6339C95.2104 20.6714 92.8218 23.9705 91.9904 27.8464C91.8286 28.5973 91.7258 29.3696 91.6864 30.1589L83.6909 27.5688C83.9054 26.0679 84.2692 24.6152 84.7672 23.2259C86.3477 18.8071 89.2772 15.0295 93.0614 12.3866C95.45 10.7179 98.1802 9.5009 101.126 8.86251C102.668 8.52768 104.269 8.35179 105.911 8.35179C118.309 8.35179 128.359 18.3902 128.359 30.7723Z" fill="#D31F34"/>
<path d="M106.926 29.0589C106.721 30.033 106.454 30.9839 106.127 31.908C104.566 36.3259 101.659 40.1107 97.8995 42.7705C95.4983 44.4696 92.7494 45.7089 89.7796 46.3634C88.2134 46.708 86.5855 46.8902 84.9156 46.8902C72.4958 46.8902 62.4271 36.8339 62.4271 24.4295C62.4271 12.2295 72.1659 2.30179 84.3032 1.97769C84.5061 1.97233 84.7109 1.96965 84.9156 1.96965C86.859 1.96965 88.7444 2.21608 90.5431 2.67858L90.6396 11.15C89.0001 10.5009 87.2122 10.1437 85.3411 10.1437C84.6233 10.1437 83.917 10.1964 83.2278 10.2973C76.2862 11.3187 70.9582 17.292 70.9582 24.5089C70.9582 32.3196 77.1989 38.6741 84.9719 38.8696C85.0944 38.8723 85.2177 38.8741 85.3411 38.8741C88.1142 38.8741 90.704 38.0902 92.9004 36.7321C96.1768 34.7071 98.5789 31.4036 99.4076 27.5187C99.5506 26.8509 99.6463 26.1661 99.6919 25.467L106.926 29.0589Z" fill="#1D97D4"/>
<path d="M40.1487 111.341C40.1487 106.628 43.754 102.799 48.18 102.799C52.1456 102.799 55.4435 105.866 56.0934 109.888H53.1978C52.6105 107.442 50.5875 105.638 48.18 105.638C45.3229 105.638 42.9915 108.194 42.9915 111.341C42.9915 114.483 45.3229 117.039 48.18 117.039C50.5732 117.039 52.5864 115.255 53.1835 112.837H56.0835C55.4202 116.836 52.1322 119.879 48.18 119.879C43.754 119.879 40.1487 116.05 40.1487 111.341Z" fill="#D31F34"/>
<path d="M72.9544 111.338C72.9544 116.049 69.3508 119.881 64.9221 119.881C60.4925 119.881 56.8908 116.049 56.8908 111.338C56.8908 107.401 59.4091 104.077 62.8222 103.094V106.124C61.0039 107.012 59.7336 109.014 59.7336 111.338C59.7336 114.484 62.0606 117.041 64.9221 117.041C67.7828 117.041 70.1107 114.484 70.1107 111.338C70.1107 109.131 68.9646 107.213 67.292 106.266V103.176C70.5675 104.254 72.9544 107.505 72.9544 111.338Z" fill="#D31F34"/>
<path d="M77.4403 119.893H74.4866V102.83H77.704L84.6116 114.753V102.83H87.5653V119.893H84.575L77.4394 107.584V119.893H77.4403Z" fill="#D31F34"/>
<path d="M92.7181 119.893H89.7644V102.83H92.9818L99.8894 114.753V102.83H102.843V119.893H99.8528L92.7172 107.584V119.893H92.7181Z" fill="#D31F34"/>
<path d="M116.437 119.893H105.041V102.83H116.437V105.304H107.995V109.887H115.481V112.837H107.995V117.42H116.437V119.893Z" fill="#D31F34"/>
<path d="M117.171 111.341C117.171 106.628 120.776 102.799 125.202 102.799C129.167 102.799 132.465 105.866 133.115 109.888H130.22C129.632 107.442 127.608 105.638 125.202 105.638C122.345 105.638 120.013 108.194 120.013 111.341C120.013 114.483 122.345 117.039 125.202 117.039C127.595 117.039 129.608 115.255 130.205 112.837H133.105C132.442 116.836 129.154 119.879 125.202 119.879C120.776 119.879 117.171 116.05 117.171 111.341Z" fill="#D31F34"/>
<path d="M138.635 105.781H133.058V102.831H147.218V105.781H141.589V119.996H138.635V105.781Z" fill="#D31F34"/>
<path d="M66.3981 99.767H63.7162V109.41H66.3981V99.767Z" fill="#D31F34"/>
<path d="M2.73285 113.16H34.7518V108.696H2.73285C2.1482 108.696 1.67529 109.169 1.67529 109.752V112.103C1.67529 112.687 2.14909 113.16 2.73285 113.16Z" fill="#1D97D4"/>
<path d="M186.815 113.517H153.47V108.696H186.815C187.456 108.696 187.977 109.215 187.977 109.856V112.356C187.977 112.997 187.456 113.517 186.815 113.517Z" fill="#1D97D4"/>
</g>
<defs>
<clipPath id="clip0_134_84">
<rect width="188" height="120" fill="white"/>
</clipPath>
</defs>
</svg>
