<svg width="98" height="40" viewBox="0 0 98 40" fill="none" xmlns="http://www.w3.org/2000/svg">
<g filter="url(#filter0_d_702_889)">
<rect x="3" y="4" width="91" height="32" rx="16" fill="#F8F2F8" shape-rendering="crispEdges"/>
<mask id="mask0_702_889" style="mask-type:alpha" maskUnits="userSpaceOnUse" x="12" y="11" width="19" height="18">
<rect x="12.5" y="11" width="18" height="18" fill="#D9D9D9"/>
</mask>
<g mask="url(#mask0_702_889)">
<path d="M23.75 21.65L21.65 23.75C21.5 23.9 21.325 23.975 21.125 23.975C20.925 23.975 20.75 23.9 20.6 23.75L14.225 17.375C14.075 17.225 14 17.0563 14 16.8688C14 16.6813 14.075 16.5125 14.225 16.3625L16.325 14.2625C16.475 14.1125 16.6562 14.0375 16.8688 14.0375C17.0812 14.0375 17.2625 14.1125 17.4125 14.2625L23.75 20.6C23.9 20.75 23.975 20.925 23.975 21.125C23.975 21.325 23.9 21.5 23.75 21.65ZM26.45 27.5L23.2625 24.3125L24.3125 23.2625L27.5 26.45L26.45 27.5ZM26.375 17.75C25.65 17.75 25.0312 17.4938 24.5188 16.9812C24.0063 16.4688 23.75 15.85 23.75 15.125C23.75 14.4 24.0063 13.7812 24.5188 13.2687C25.0312 12.7562 25.65 12.5 26.375 12.5C27.1 12.5 27.7188 12.7562 28.2313 13.2687C28.7438 13.7812 29 14.4 29 15.125C29 15.85 28.7438 16.4688 28.2313 16.9812C27.7188 17.4938 27.1 17.75 26.375 17.75Z" fill="black"/>
</g>
<path d="M45.0753 18.6293H43.5241C43.4645 18.2978 43.3535 18.0062 43.1911 17.7543C43.0286 17.5024 42.8298 17.2886 42.5945 17.1129C42.3591 16.9373 42.0956 16.8047 41.804 16.7152C41.5156 16.6257 41.209 16.581 40.8842 16.581C40.2976 16.581 39.7723 16.7285 39.3082 17.0234C38.8475 17.3184 38.483 17.7509 38.2145 18.321C37.9493 18.8911 37.8168 19.5871 37.8168 20.4091C37.8168 21.2377 37.9493 21.937 38.2145 22.5071C38.483 23.0772 38.8492 23.508 39.3132 23.7997C39.7772 24.0914 40.2992 24.2372 40.8793 24.2372C41.2008 24.2372 41.5057 24.1941 41.794 24.108C42.0857 24.0185 42.3492 23.8875 42.5845 23.7152C42.8198 23.5429 43.0187 23.3324 43.1811 23.0838C43.3468 22.8319 43.4612 22.5436 43.5241 22.2188L45.0753 22.2237C44.9924 22.7242 44.8317 23.1849 44.593 23.6058C44.3577 24.0234 44.0545 24.3847 43.6832 24.6896C43.3153 24.9912 42.8944 25.2249 42.4205 25.3906C41.9465 25.5563 41.4295 25.6392 40.8693 25.6392C39.9877 25.6392 39.2022 25.4304 38.5128 25.0128C37.8234 24.5919 37.2798 23.9903 36.8821 23.2081C36.4877 22.4259 36.2905 21.4929 36.2905 20.4091C36.2905 19.322 36.4893 18.389 36.8871 17.6101C37.2848 16.8279 37.8284 16.228 38.5178 15.8104C39.2071 15.3894 39.991 15.179 40.8693 15.179C41.4096 15.179 41.9134 15.2569 42.3807 15.4126C42.8513 15.5651 43.2739 15.7905 43.6484 16.0888C44.023 16.3838 44.3329 16.745 44.5781 17.1726C44.8234 17.5968 44.9891 18.0824 45.0753 18.6293ZM46.7942 25.5V17.8636H48.231V19.0767H48.3105C48.4498 18.6657 48.695 18.3426 49.0463 18.1072C49.401 17.8686 49.802 17.7493 50.2495 17.7493C50.3423 17.7493 50.4516 17.7526 50.5776 17.7592C50.7069 17.7659 50.8079 17.7741 50.8809 17.7841V19.206C50.8212 19.1894 50.7151 19.1712 50.5627 19.1513C50.4102 19.1281 50.2578 19.1165 50.1053 19.1165C49.754 19.1165 49.4408 19.1911 49.1657 19.3402C48.8939 19.486 48.6784 19.6899 48.5194 19.9517C48.3603 20.2102 48.2807 20.5052 48.2807 20.8366V25.5H46.7942ZM52.1673 25.5V17.8636H53.6538V25.5H52.1673ZM52.918 16.6854C52.6594 16.6854 52.4374 16.5992 52.2518 16.4268C52.0695 16.2512 51.9783 16.0424 51.9783 15.8004C51.9783 15.5552 52.0695 15.3464 52.2518 15.174C52.4374 14.9983 52.6594 14.9105 52.918 14.9105C53.1765 14.9105 53.3969 14.9983 53.5792 15.174C53.7648 15.3464 53.8576 15.5552 53.8576 15.8004C53.8576 16.0424 53.7648 16.2512 53.5792 16.4268C53.3969 16.5992 53.1765 16.6854 52.918 16.6854ZM58.8702 25.6541C58.1311 25.6541 57.4947 25.4867 56.9611 25.152C56.4308 24.8139 56.0231 24.3482 55.7381 23.755C55.4531 23.1617 55.3105 22.4822 55.3105 21.7166C55.3105 20.9411 55.4564 20.2566 55.748 19.6634C56.0397 19.0668 56.4507 18.6011 56.981 18.2663C57.5113 17.9316 58.1361 17.7642 58.8553 17.7642C59.4353 17.7642 59.9524 17.8719 60.4064 18.0874C60.8605 18.2995 61.2267 18.5978 61.5051 18.9822C61.7869 19.3667 61.9542 19.8158 62.0073 20.3295H60.5605C60.481 19.9716 60.2987 19.6634 60.0137 19.4048C59.7319 19.1463 59.3541 19.017 58.8801 19.017C58.4659 19.017 58.1029 19.1264 57.7914 19.3452C57.4831 19.5606 57.2428 19.8688 57.0705 20.2699C56.8981 20.6676 56.812 21.1383 56.812 21.6818C56.812 22.2386 56.8965 22.7192 57.0655 23.1236C57.2346 23.5279 57.4732 23.8411 57.7814 24.0632C58.093 24.2853 58.4592 24.3963 58.8801 24.3963C59.1619 24.3963 59.4171 24.3449 59.6458 24.2422C59.8778 24.1361 60.0717 23.9853 60.2275 23.7898C60.3865 23.5942 60.4976 23.3589 60.5605 23.0838H62.0073C61.9542 23.5777 61.7935 24.0185 61.525 24.4062C61.2566 24.794 60.897 25.099 60.4462 25.321C59.9988 25.5431 59.4734 25.6541 58.8702 25.6541ZM64.9641 22.9098L64.9542 21.0952H65.2127L68.2553 17.8636H70.0352L66.565 21.5426H66.3313L64.9641 22.9098ZM63.5969 25.5V15.3182H65.0835V25.5H63.5969ZM68.4194 25.5L65.685 21.8707L66.7092 20.8317L70.244 25.5H68.4194ZM74.3667 25.6541C73.6143 25.6541 72.9663 25.4934 72.4228 25.1719C71.8825 24.8471 71.4649 24.3913 71.1699 23.8047C70.8783 23.2147 70.7324 22.5237 70.7324 21.7315C70.7324 20.9493 70.8783 20.2599 71.1699 19.6634C71.4649 19.0668 71.8759 18.6011 72.4029 18.2663C72.9332 17.9316 73.553 17.7642 74.2623 17.7642C74.6931 17.7642 75.1107 17.8355 75.5151 17.978C75.9194 18.1205 76.2824 18.3442 76.6039 18.6491C76.9254 18.9541 77.1789 19.3501 77.3645 19.8374C77.5501 20.3213 77.6429 20.9096 77.6429 21.6023V22.1293H71.5726V21.0156H76.1863C76.1863 20.6245 76.1067 20.2782 75.9476 19.9766C75.7885 19.6716 75.5648 19.4313 75.2765 19.2557C74.9914 19.08 74.6567 18.9922 74.2722 18.9922C73.8546 18.9922 73.49 19.0949 73.1784 19.3004C72.8702 19.5026 72.6316 19.7678 72.4625 20.0959C72.2968 20.4207 72.214 20.7737 72.214 21.1548V22.0249C72.214 22.5353 72.3034 22.9695 72.4824 23.3274C72.6647 23.6854 72.9183 23.9588 73.2431 24.1477C73.5679 24.3333 73.9474 24.4261 74.3816 24.4261C74.6633 24.4261 74.9202 24.3864 75.1522 24.3068C75.3842 24.224 75.5847 24.1013 75.7537 23.9389C75.9228 23.7765 76.052 23.576 76.1415 23.3374L77.5485 23.5909C77.4358 24.0052 77.2336 24.3681 76.9419 24.6797C76.6536 24.9879 76.2907 25.2282 75.8532 25.4006C75.419 25.5696 74.9235 25.6541 74.3667 25.6541ZM82.8569 17.8636V19.0568H78.6857V17.8636H82.8569ZM79.8043 16.0341H81.2908V23.2578C81.2908 23.5462 81.3339 23.7633 81.4201 23.9091C81.5063 24.0516 81.6173 24.1494 81.7532 24.2024C81.8924 24.2521 82.0432 24.277 82.2056 24.277C82.3249 24.277 82.4293 24.2687 82.5188 24.2521C82.6083 24.2356 82.6779 24.2223 82.7276 24.2124L82.9961 25.4403C82.9099 25.4735 82.7873 25.5066 82.6282 25.5398C82.4691 25.5762 82.2702 25.5961 82.0316 25.5994C81.6405 25.6061 81.2759 25.5365 80.9379 25.3906C80.5998 25.2448 80.3263 25.0194 80.1175 24.7145C79.9087 24.4096 79.8043 24.0268 79.8043 23.5661V16.0341Z" fill="black"/>
</g>
<defs>
<filter id="filter0_d_702_889" x="-1" y="0" width="99" height="40" filterUnits="userSpaceOnUse" color-interpolation-filters="sRGB">
<feFlood flood-opacity="0" result="BackgroundImageFix"/>
<feColorMatrix in="SourceAlpha" type="matrix" values="0 0 0 0 0 0 0 0 0 0 0 0 0 0 0 0 0 0 127 0" result="hardAlpha"/>
<feOffset/>
<feGaussianBlur stdDeviation="2"/>
<feComposite in2="hardAlpha" operator="out"/>
<feColorMatrix type="matrix" values="0 0 0 0 0 0 0 0 0 0 0 0 0 0 0 0 0 0 0.25 0"/>
<feBlend mode="normal" in2="BackgroundImageFix" result="effect1_dropShadow_702_889"/>
<feBlend mode="normal" in="SourceGraphic" in2="effect1_dropShadow_702_889" result="shape"/>
</filter>
</defs>
</svg>
