<svg width="19" height="18" viewBox="0 0 19 18" fill="none" xmlns="http://www.w3.org/2000/svg">
<path fill-rule="evenodd" clip-rule="evenodd" d="M6.23509 0.000114634C6.26779 0.000182132 6.30055 0.00023828 6.33333 0.00023828C6.36616 0.00023828 6.39888 0.000182132 6.43161 0.000114634C6.82079 -0.000571599 7.20332 -0.0012469 7.54406 0.0960632C8.45479 0.356123 9.16602 1.11421 9.41007 2.08475C9.50137 2.44794 9.50074 2.85564 9.50011 3.27044C9.50011 3.3053 9.5 3.34021 9.5 3.37515H17.9444C18.5274 3.37515 19 3.87881 19 4.50012C19 5.12142 18.5274 5.6251 17.9444 5.6251H9.5C9.5 5.66004 9.50011 5.69495 9.50011 5.72981C9.50074 6.14461 9.50137 6.55231 9.41007 6.91554C9.16602 7.88605 8.45479 8.64417 7.54406 8.90415C7.20332 9.00146 6.82079 9.00079 6.43161 9.00011C6.39888 9.00011 6.36616 9 6.33333 9C6.30055 9 6.26779 9.00011 6.23508 9.00011C5.84588 9.00079 5.46333 9.00146 5.12256 8.90415C4.2119 8.64417 3.50059 7.88605 3.25659 6.91554C3.16527 6.5523 3.16591 6.14461 3.16656 5.7298C3.16661 5.69495 3.16667 5.66003 3.16667 5.6251H1.05556C0.472593 5.6251 0 5.12142 0 4.50012C0 3.87881 0.472593 3.37515 1.05556 3.37515H3.16667C3.16667 3.34021 3.16661 3.3053 3.16656 3.27044C3.16591 2.85564 3.16527 2.44794 3.25659 2.08475C3.50059 1.11421 4.2119 0.356123 5.12256 0.0960632C5.46333 -0.0012469 5.84588 -0.000571599 6.23509 0.000114634ZM5.80409 2.2562C5.6915 2.26167 5.66501 2.27048 5.66896 2.26934C5.48682 2.32136 5.34456 2.47297 5.29576 2.66709C5.29488 2.67103 5.28794 2.70559 5.28343 2.81109C5.27803 2.93712 5.27778 3.10341 5.27778 3.37515V5.6251C5.27778 5.89683 5.27803 6.06312 5.28343 6.18915C5.28856 6.30914 5.29682 6.33736 5.29576 6.33317C5.34456 6.52727 5.48682 6.67889 5.66896 6.7309C5.66501 6.72977 5.6915 6.73857 5.80409 6.74405C5.92233 6.7498 6.07835 6.75006 6.33333 6.75006C6.58836 6.75006 6.74437 6.7498 6.86259 6.74405C6.97511 6.73857 7.00161 6.72977 6.9977 6.7309C7.17989 6.67889 7.32207 6.52727 7.37094 6.33317C7.36989 6.33736 7.37812 6.30914 7.38319 6.18915C7.38868 6.06312 7.38889 5.89683 7.38889 5.6251V3.37515C7.38889 3.10341 7.38868 2.93712 7.38319 2.81109C7.37812 2.69111 7.36989 2.66288 7.37094 2.66709M5.80409 2.2562C5.92233 2.25045 6.07835 2.25018 6.33333 2.25018L5.80409 2.2562ZM6.33333 2.25018C6.58836 2.25018 6.74437 2.25045 6.86259 2.2562L6.33333 2.25018ZM6.86259 2.2562C6.9616 2.261 6.99401 2.26839 6.9977 2.26934L6.86259 2.2562ZM12.5684 8.99989C12.6011 9 12.6338 9 12.6667 9C12.6995 9 12.7322 9 12.7649 8.99989C13.1541 8.99921 13.5367 8.99854 13.8774 9.09585C14.7881 9.35594 15.4994 10.1139 15.7434 11.0846C15.8347 11.4477 15.8341 11.8554 15.8334 12.2702C15.8334 12.3051 15.8333 12.3399 15.8333 12.3749H17.9444C18.5274 12.3749 19 12.8786 19 13.4999C19 14.1212 18.5274 14.6249 17.9444 14.6249H15.8333C15.8333 14.6598 15.8334 14.6947 15.8334 14.7296C15.8341 15.1444 15.8347 15.5521 15.7434 15.9153C15.4994 16.8858 14.7881 17.6439 13.8774 17.9039C13.5367 18.0012 13.1541 18.0006 12.7649 17.9999C12.7322 17.9999 12.6995 17.9998 12.6667 17.9998C12.6338 17.9998 12.6011 17.9999 12.5684 17.9999C12.1792 18.0006 11.7967 18.0012 11.4559 17.9039C10.5452 17.6439 9.83398 16.8858 9.58993 15.9153C9.49863 15.5521 9.49926 15.1444 9.49989 14.7296C9.49989 14.6947 9.5 14.6598 9.5 14.6249H1.05556C0.472593 14.6249 0 14.1212 0 13.4999C0 12.8786 0.472593 12.3749 1.05556 12.3749H9.5C9.5 12.34 9.49989 12.3051 9.49989 12.2702C9.49926 11.8554 9.49863 11.4477 9.58993 11.0846C9.83398 10.1139 10.5452 9.35594 11.4559 9.09585C11.7967 8.99854 12.1792 8.99921 12.5684 8.99989ZM12.1374 11.256C12.0249 11.2614 11.9984 11.2702 12.0023 11.2691C11.8201 11.3212 11.6779 11.4728 11.6291 11.6669C11.6301 11.6627 11.6219 11.6909 11.6168 11.8109C11.6113 11.9369 11.6111 12.1032 11.6111 12.3749V14.6249C11.6111 14.8967 11.6113 15.0629 11.6168 15.1889C11.6219 15.309 11.6301 15.3372 11.6291 15.3329C11.6779 15.5271 11.8201 15.6786 12.0023 15.7307C11.9984 15.7296 12.0249 15.7384 12.1374 15.7439C12.2556 15.7496 12.4116 15.7498 12.6667 15.7498C12.9217 15.7498 13.0777 15.7496 13.1959 15.7439C13.3084 15.7384 13.3349 15.7296 13.331 15.7307C13.5132 15.6786 13.6554 15.5271 13.7043 15.3329C13.7032 15.3372 13.7115 15.309 13.7165 15.1889C13.722 15.0629 13.7222 14.8967 13.7222 14.6249V12.3749C13.7222 12.1032 13.722 11.9369 13.7165 11.8109C13.7115 11.6909 13.7032 11.6627 13.7043 11.6669C13.6554 11.4728 13.5132 11.3212 13.331 11.2691C13.3349 11.2702 13.3084 11.2614 13.1959 11.256C13.0777 11.2502 12.9217 11.2499 12.6667 11.2499C12.4116 11.2499 12.2556 11.2502 12.1374 11.256Z" fill="white"/>
</svg>
