<svg width="129" height="36" viewBox="0 0 129 36" fill="none" xmlns="http://www.w3.org/2000/svg">
<g filter="url(#filter0_d_702_790)">
<rect x="3" y="4" width="122" height="32" rx="16" fill="#F8F2F8" shape-rendering="crispEdges"/>
<mask id="mask0_702_790" style="mask-type:alpha" maskUnits="userSpaceOnUse" x="18" y="11" width="18" height="18">
<rect x="18" y="11" width="18" height="18" fill="#D9D9D9"/>
</mask>
<g mask="url(#mask0_702_790)">
<path d="M18.7125 20.975C18.4875 20.525 18.3125 20.0688 18.1875 19.6063C18.0625 19.1438 18 18.675 18 18.2C18 16.8 18.475 15.625 19.425 14.675C20.375 13.725 21.55 13.25 22.95 13.25C23.7375 13.25 24.4875 13.4156 25.2 13.7469C25.9125 14.0781 26.5125 14.5375 27 15.125C27.4875 14.5375 28.0875 14.0781 28.8 13.7469C29.5125 13.4156 30.2625 13.25 31.05 13.25C32.45 13.25 33.625 13.725 34.575 14.675C35.525 15.625 36 16.8 36 18.2C36 18.675 35.9375 19.1438 35.8125 19.6063C35.6875 20.0688 35.5125 20.525 35.2875 20.975C35.15 20.7375 34.9875 20.525 34.8 20.3375C34.6125 20.15 34.3937 20 34.1437 19.8875C34.2563 19.6 34.3438 19.3187 34.4062 19.0437C34.4688 18.7687 34.5 18.4875 34.5 18.2C34.5 17.225 34.1688 16.4062 33.5063 15.7438C32.8438 15.0813 32.025 14.75 31.05 14.75C30.0375 14.75 29.2594 15.0281 28.7156 15.5844C28.1719 16.1406 27.6 16.7625 27 17.45C26.4 16.75 25.8281 16.125 25.2844 15.575C24.7406 15.025 23.9625 14.75 22.95 14.75C21.975 14.75 21.1562 15.0813 20.4938 15.7438C19.8313 16.4062 19.5 17.225 19.5 18.2C19.5 18.4875 19.5312 18.7687 19.5938 19.0437C19.6562 19.3187 19.7438 19.6 19.8563 19.8875C19.6063 20 19.3875 20.15 19.2 20.3375C19.0125 20.525 18.85 20.7375 18.7125 20.975ZM18 27.5V26.3188C18 25.7688 18.2781 25.3281 18.8344 24.9969C19.3906 24.6656 20.1125 24.5 21 24.5C21.1625 24.5 21.3187 24.5031 21.4688 24.5094C21.6188 24.5156 21.7625 24.5312 21.9 24.5562C21.725 24.8062 21.5938 25.075 21.5063 25.3625C21.4188 25.65 21.375 25.9563 21.375 26.2812V27.5H18ZM22.5 27.5V26.2812C22.5 25.4688 22.9156 24.8125 23.7469 24.3125C24.5781 23.8125 25.6625 23.5625 27 23.5625C28.35 23.5625 29.4375 23.8125 30.2625 24.3125C31.0875 24.8125 31.5 25.4688 31.5 26.2812V27.5H22.5ZM32.625 27.5V26.2812C32.625 25.9563 32.5844 25.65 32.5031 25.3625C32.4219 25.075 32.3 24.8062 32.1375 24.5562C32.275 24.5312 32.4156 24.5156 32.5594 24.5094C32.7031 24.5031 32.85 24.5 33 24.5C33.9 24.5 34.625 24.6656 35.175 24.9969C35.725 25.3281 36 25.7688 36 26.3188V27.5H32.625ZM27 25.0625C26.2875 25.0625 25.65 25.1562 25.0875 25.3438C24.525 25.5312 24.1937 25.75 24.0938 26H29.925C29.8125 25.75 29.4781 25.5312 28.9219 25.3438C28.3656 25.1562 27.725 25.0625 27 25.0625ZM21 23.75C20.5875 23.75 20.2344 23.6031 19.9406 23.3094C19.6469 23.0156 19.5 22.6625 19.5 22.25C19.5 21.825 19.6469 21.4688 19.9406 21.1812C20.2344 20.8937 20.5875 20.75 21 20.75C21.425 20.75 21.7813 20.8937 22.0688 21.1812C22.3563 21.4688 22.5 21.825 22.5 22.25C22.5 22.6625 22.3563 23.0156 22.0688 23.3094C21.7813 23.6031 21.425 23.75 21 23.75ZM33 23.75C32.5875 23.75 32.2344 23.6031 31.9406 23.3094C31.6469 23.0156 31.5 22.6625 31.5 22.25C31.5 21.825 31.6469 21.4688 31.9406 21.1812C32.2344 20.8937 32.5875 20.75 33 20.75C33.425 20.75 33.7813 20.8937 34.0688 21.1812C34.3563 21.4688 34.5 21.825 34.5 22.25C34.5 22.6625 34.3563 23.0156 34.0688 23.3094C33.7813 23.6031 33.425 23.75 33 23.75ZM27 23C26.375 23 25.8438 22.7812 25.4062 22.3438C24.9688 21.9062 24.75 21.375 24.75 20.75C24.75 20.1125 24.9688 19.5781 25.4062 19.1469C25.8438 18.7156 26.375 18.5 27 18.5C27.6375 18.5 28.1719 18.7156 28.6031 19.1469C29.0344 19.5781 29.25 20.1125 29.25 20.75C29.25 21.375 29.0344 21.9062 28.6031 22.3438C28.1719 22.7812 27.6375 23 27 23ZM27 20C26.7875 20 26.6094 20.0719 26.4656 20.2156C26.3219 20.3594 26.25 20.5375 26.25 20.75C26.25 20.9625 26.3219 21.1406 26.4656 21.2844C26.6094 21.4281 26.7875 21.5 27 21.5C27.2125 21.5 27.3906 21.4281 27.5344 21.2844C27.6781 21.1406 27.75 20.9625 27.75 20.75C27.75 20.5375 27.6781 20.3594 27.5344 20.2156C27.3906 20.0719 27.2125 20 27 20Z" fill="black"/>
</g>
<path d="M40.1186 25.5V15.3182H46.4325V16.6406H41.6548V19.7429H45.9801V21.0604H41.6548V25.5H40.1186ZM48.1067 25.5V17.8636H49.5435V19.0767H49.623C49.7623 18.6657 50.0075 18.3426 50.3588 18.1072C50.7135 17.8686 51.1145 17.7493 51.562 17.7493C51.6548 17.7493 51.7641 17.7526 51.8901 17.7592C52.0194 17.7659 52.1204 17.7741 52.1934 17.7841V19.206C52.1337 19.1894 52.0276 19.1712 51.8752 19.1513C51.7227 19.1281 51.5703 19.1165 51.4178 19.1165C51.0665 19.1165 50.7533 19.1911 50.4782 19.3402C50.2064 19.486 49.9909 19.6899 49.8319 19.9517C49.6728 20.2102 49.5932 20.5052 49.5932 20.8366V25.5H48.1067ZM53.4798 25.5V17.8636H54.9663V25.5H53.4798ZM54.2305 16.6854C53.9719 16.6854 53.7499 16.5992 53.5643 16.4268C53.382 16.2512 53.2908 16.0424 53.2908 15.8004C53.2908 15.5552 53.382 15.3464 53.5643 15.174C53.7499 14.9983 53.9719 14.9105 54.2305 14.9105C54.489 14.9105 54.7094 14.9983 54.8917 15.174C55.0773 15.3464 55.1701 15.5552 55.1701 15.8004C55.1701 16.0424 55.0773 16.2512 54.8917 16.4268C54.7094 16.5992 54.489 16.6854 54.2305 16.6854ZM60.2573 25.6541C59.5049 25.6541 58.8569 25.4934 58.3134 25.1719C57.7731 24.8471 57.3555 24.3913 57.0605 23.8047C56.7689 23.2147 56.623 22.5237 56.623 21.7315C56.623 20.9493 56.7689 20.2599 57.0605 19.6634C57.3555 19.0668 57.7665 18.6011 58.2935 18.2663C58.8238 17.9316 59.4436 17.7642 60.1529 17.7642C60.5837 17.7642 61.0014 17.8355 61.4057 17.978C61.8101 18.1205 62.173 18.3442 62.4945 18.6491C62.816 18.9541 63.0695 19.3501 63.2551 19.8374C63.4408 20.3213 63.5336 20.9096 63.5336 21.6023V22.1293H57.4632V21.0156H62.0769C62.0769 20.6245 61.9973 20.2782 61.8382 19.9766C61.6792 19.6716 61.4554 19.4313 61.1671 19.2557C60.882 19.08 60.5473 18.9922 60.1628 18.9922C59.7452 18.9922 59.3806 19.0949 59.0691 19.3004C58.7608 19.5026 58.5222 19.7678 58.3532 20.0959C58.1874 20.4207 58.1046 20.7737 58.1046 21.1548V22.0249C58.1046 22.5353 58.1941 22.9695 58.373 23.3274C58.5553 23.6854 58.8089 23.9588 59.1337 24.1477C59.4585 24.3333 59.838 24.4261 60.2722 24.4261C60.5539 24.4261 60.8108 24.3864 61.0428 24.3068C61.2748 24.224 61.4753 24.1013 61.6444 23.9389C61.8134 23.7765 61.9426 23.576 62.0321 23.3374L63.4391 23.5909C63.3264 24.0052 63.1242 24.3681 62.8326 24.6797C62.5442 24.9879 62.1813 25.2282 61.7438 25.4006C61.3096 25.5696 60.8141 25.6541 60.2573 25.6541ZM66.6694 20.9659V25.5H65.1829V17.8636H66.6097V19.1065H66.7042C66.8799 18.7022 67.1549 18.3774 67.5295 18.1321C67.9073 17.8868 68.3829 17.7642 68.9563 17.7642C69.4767 17.7642 69.9324 17.8736 70.3235 18.0923C70.7146 18.3078 71.0179 18.6293 71.2333 19.0568C71.4487 19.4844 71.5565 20.013 71.5565 20.6428V25.5H70.07V20.8217C70.07 20.2682 69.9258 19.8357 69.6374 19.5241C69.3491 19.2093 68.953 19.0518 68.4492 19.0518C68.1045 19.0518 67.7979 19.1264 67.5295 19.2756C67.2643 19.4247 67.0539 19.6435 66.8981 19.9318C66.7456 20.2169 66.6694 20.5616 66.6694 20.9659ZM76.4087 25.6491C75.7923 25.6491 75.2421 25.4917 74.7582 25.1768C74.2776 24.8587 73.8997 24.4062 73.6246 23.8196C73.3529 23.2296 73.217 22.522 73.217 21.6967C73.217 20.8714 73.3545 20.1655 73.6296 19.5788C73.908 18.9922 74.2892 18.5431 74.7731 18.2315C75.257 17.92 75.8055 17.7642 76.4187 17.7642C76.8926 17.7642 77.2738 17.8438 77.5621 18.0028C77.8538 18.1586 78.0792 18.3409 78.2383 18.5497C78.4007 18.7585 78.5266 18.9425 78.6161 19.1016H78.7056V15.3182H80.1921V25.5H78.7404V24.3118H78.6161C78.5266 24.4742 78.3974 24.6598 78.2283 24.8686C78.0626 25.0774 77.8339 25.2597 77.5423 25.4155C77.2506 25.5713 76.8728 25.6491 76.4087 25.6491ZM76.7369 24.3814C77.1644 24.3814 77.5257 24.2687 77.8207 24.0433C78.119 23.8146 78.3443 23.4981 78.4968 23.0938C78.6526 22.6894 78.7305 22.2187 78.7305 21.6818C78.7305 21.1515 78.6542 20.6875 78.5018 20.2898C78.3493 19.892 78.1256 19.5821 77.8306 19.3601C77.5356 19.138 77.171 19.027 76.7369 19.027C76.2894 19.027 75.9165 19.143 75.6183 19.375C75.32 19.607 75.0946 19.9235 74.9421 20.3246C74.793 20.7256 74.7184 21.178 74.7184 21.6818C74.7184 22.1922 74.7946 22.6513 74.9471 23.0589C75.0996 23.4666 75.3249 23.7898 75.6232 24.0284C75.9248 24.2637 76.296 24.3814 76.7369 24.3814ZM88.036 19.728L86.6887 19.9666C86.6324 19.7943 86.5429 19.6302 86.4203 19.4744C86.301 19.3187 86.1386 19.1911 85.9331 19.0916C85.7276 18.9922 85.4707 18.9425 85.1625 18.9425C84.7415 18.9425 84.3902 19.0369 84.1085 19.2259C83.8268 19.4115 83.6859 19.6518 83.6859 19.9467C83.6859 20.2019 83.7804 20.4074 83.9693 20.5632C84.1582 20.719 84.4631 20.8466 84.8841 20.946L86.0971 21.2244C86.7998 21.3868 87.3234 21.6371 87.6681 21.9751C88.0128 22.3132 88.1852 22.7524 88.1852 23.2926C88.1852 23.75 88.0526 24.1577 87.7875 24.5156C87.5256 24.8703 87.1594 25.1487 86.6887 25.3509C86.2214 25.553 85.6795 25.6541 85.063 25.6541C84.2079 25.6541 83.5102 25.4718 82.97 25.1072C82.4297 24.7393 82.0983 24.2173 81.9757 23.5412L83.4125 23.3224C83.502 23.697 83.6859 23.9804 83.9643 24.1726C84.2427 24.3615 84.6056 24.456 85.0531 24.456C85.5403 24.456 85.9297 24.3549 86.2214 24.1527C86.5131 23.9472 86.6589 23.697 86.6589 23.402C86.6589 23.1634 86.5694 22.9628 86.3904 22.8004C86.2148 22.638 85.9447 22.5154 85.5801 22.4325L84.2875 22.1491C83.5749 21.9867 83.0479 21.7282 82.7065 21.3736C82.3684 21.0189 82.1994 20.5698 82.1994 20.0263C82.1994 19.5755 82.3253 19.1811 82.5772 18.843C82.8291 18.505 83.1771 18.2415 83.6213 18.0526C84.0654 17.8603 84.5742 17.7642 85.1475 17.7642C85.9728 17.7642 86.6225 17.9432 87.0964 18.3011C87.5704 18.6558 87.8836 19.1314 88.036 19.728ZM91.3061 20.9659V25.5H89.8196V15.3182H91.2862V19.1065H91.3807C91.5597 18.6955 91.8331 18.3691 92.201 18.1271C92.5689 17.8852 93.0495 17.7642 93.6428 17.7642C94.1664 17.7642 94.6238 17.8719 95.0149 18.0874C95.4093 18.3028 95.7143 18.6243 95.9297 19.0518C96.1484 19.4761 96.2578 20.0064 96.2578 20.6428V25.5H94.7713V20.8217C94.7713 20.2616 94.6271 19.8274 94.3388 19.5192C94.0504 19.2076 93.6494 19.0518 93.1357 19.0518C92.7843 19.0518 92.4695 19.1264 92.1911 19.2756C91.916 19.4247 91.6989 19.6435 91.5398 19.9318C91.384 20.2169 91.3061 20.5616 91.3061 20.9659ZM98.2415 25.5V17.8636H99.728V25.5H98.2415ZM98.9922 16.6854C98.7337 16.6854 98.5116 16.5992 98.326 16.4268C98.1437 16.2512 98.0526 16.0424 98.0526 15.8004C98.0526 15.5552 98.1437 15.3464 98.326 15.174C98.5116 14.9983 98.7337 14.9105 98.9922 14.9105C99.2507 14.9105 99.4711 14.9983 99.6534 15.174C99.839 15.3464 99.9318 15.5552 99.9318 15.8004C99.9318 16.0424 99.839 16.2512 99.6534 16.4268C99.4711 16.5992 99.2507 16.6854 98.9922 16.6854ZM101.728 28.3636V17.8636H103.18V19.1016H103.304C103.39 18.9425 103.514 18.7585 103.677 18.5497C103.839 18.3409 104.064 18.1586 104.353 18.0028C104.641 17.8438 105.022 17.7642 105.496 17.7642C106.113 17.7642 106.663 17.92 107.147 18.2315C107.631 18.5431 108.01 18.9922 108.285 19.5788C108.564 20.1655 108.703 20.8714 108.703 21.6967C108.703 22.522 108.565 23.2296 108.29 23.8196C108.015 24.4062 107.637 24.8587 107.157 25.1768C106.676 25.4917 106.128 25.6491 105.511 25.6491C105.047 25.6491 104.668 25.5713 104.373 25.4155C104.081 25.2597 103.852 25.0774 103.687 24.8686C103.521 24.6598 103.393 24.4742 103.304 24.3118H103.214V28.3636H101.728ZM103.184 21.6818C103.184 22.2187 103.262 22.6894 103.418 23.0938C103.574 23.4981 103.799 23.8146 104.094 24.0433C104.389 24.2687 104.751 24.3814 105.178 24.3814C105.622 24.3814 105.993 24.2637 106.292 24.0284C106.59 23.7898 106.815 23.4666 106.968 23.0589C107.124 22.6513 107.202 22.1922 107.202 21.6818C107.202 21.178 107.125 20.7256 106.973 20.3246C106.824 19.9235 106.598 19.607 106.297 19.375C105.998 19.143 105.626 19.027 105.178 19.027C104.747 19.027 104.383 19.138 104.084 19.3601C103.789 19.5821 103.566 19.892 103.413 20.2898C103.261 20.6875 103.184 21.1515 103.184 21.6818Z" fill="black"/>
</g>
<defs>
<filter id="filter0_d_702_790" x="-1" y="0" width="130" height="40" filterUnits="userSpaceOnUse" color-interpolation-filters="sRGB">
<feFlood flood-opacity="0" result="BackgroundImageFix"/>
<feColorMatrix in="SourceAlpha" type="matrix" values="0 0 0 0 0 0 0 0 0 0 0 0 0 0 0 0 0 0 127 0" result="hardAlpha"/>
<feOffset/>
<feGaussianBlur stdDeviation="2"/>
<feComposite in2="hardAlpha" operator="out"/>
<feColorMatrix type="matrix" values="0 0 0 0 0 0 0 0 0 0 0 0 0 0 0 0 0 0 0.25 0"/>
<feBlend mode="normal" in2="BackgroundImageFix" result="effect1_dropShadow_702_790"/>
<feBlend mode="normal" in="SourceGraphic" in2="effect1_dropShadow_702_790" result="shape"/>
</filter>
</defs>
</svg>
