<svg width="26" height="27" viewBox="0 0 26 27" fill="none" xmlns="http://www.w3.org/2000/svg">
<path d="M3 26.5V12.75H0.5V5.25H7C6.89583 5.0625 6.82812 4.86458 6.79688 4.65625C6.76562 4.44792 6.75 4.22917 6.75 4C6.75 2.95833 7.11458 2.07292 7.84375 1.34375C8.57292 0.614583 9.45833 0.25 10.5 0.25C10.9792 0.25 11.4271 0.338542 11.8438 0.515625C12.2604 0.692708 12.6458 0.9375 13 1.25C13.3542 0.916667 13.7396 0.666667 14.1562 0.5C14.5729 0.333333 15.0208 0.25 15.5 0.25C16.5417 0.25 17.4271 0.614583 18.1562 1.34375C18.8854 2.07292 19.25 2.95833 19.25 4C19.25 4.22917 19.2292 4.44271 19.1875 4.64062C19.1458 4.83854 19.0833 5.04167 19 5.25H25.5V12.75H23V26.5H3ZM15.5 2.75C15.1458 2.75 14.849 2.86979 14.6094 3.10938C14.3698 3.34896 14.25 3.64583 14.25 4C14.25 4.35417 14.3698 4.65104 14.6094 4.89062C14.849 5.13021 15.1458 5.25 15.5 5.25C15.8542 5.25 16.151 5.13021 16.3906 4.89062C16.6302 4.65104 16.75 4.35417 16.75 4C16.75 3.64583 16.6302 3.34896 16.3906 3.10938C16.151 2.86979 15.8542 2.75 15.5 2.75ZM9.25 4C9.25 4.35417 9.36979 4.65104 9.60938 4.89062C9.84896 5.13021 10.1458 5.25 10.5 5.25C10.8542 5.25 11.151 5.13021 11.3906 4.89062C11.6302 4.65104 11.75 4.35417 11.75 4C11.75 3.64583 11.6302 3.34896 11.3906 3.10938C11.151 2.86979 10.8542 2.75 10.5 2.75C10.1458 2.75 9.84896 2.86979 9.60938 3.10938C9.36979 3.34896 9.25 3.64583 9.25 4ZM3 7.75V10.25H11.75V7.75H3ZM11.75 24V12.75H5.5V24H11.75ZM14.25 24H20.5V12.75H14.25V24ZM23 10.25V7.75H14.25V10.25H23Z" fill="white"/>
</svg>
