<svg width="80" height="28" viewBox="0 0 80 28" fill="none" xmlns="http://www.w3.org/2000/svg">
<rect width="80" height="28" rx="14" fill="#E8B903"/>
<mask id="mask0_702_931" style="mask-type:alpha" maskUnits="userSpaceOnUse" x="12" y="5" width="19" height="18">
<rect x="12.5" y="5" width="18" height="18" fill="#D9D9D9"/>
</mask>
<g mask="url(#mask0_702_931)">
<path d="M16.25 20V18.5H26.75V20H16.25ZM16.25 17.375L15.2938 11.3562C15.2688 11.3562 15.2406 11.3594 15.2094 11.3656C15.1781 11.3719 15.15 11.375 15.125 11.375C14.8125 11.375 14.5469 11.2656 14.3281 11.0469C14.1094 10.8281 14 10.5625 14 10.25C14 9.9375 14.1094 9.67188 14.3281 9.45312C14.5469 9.23438 14.8125 9.125 15.125 9.125C15.4375 9.125 15.7031 9.23438 15.9219 9.45312C16.1406 9.67188 16.25 9.9375 16.25 10.25C16.25 10.3375 16.2406 10.4188 16.2219 10.4938C16.2031 10.5688 16.1813 10.6375 16.1562 10.7L18.5 11.75L20.8438 8.54375C20.7063 8.44375 20.5938 8.3125 20.5063 8.15C20.4188 7.9875 20.375 7.8125 20.375 7.625C20.375 7.3125 20.4844 7.04688 20.7031 6.82812C20.9219 6.60937 21.1875 6.5 21.5 6.5C21.8125 6.5 22.0781 6.60937 22.2969 6.82812C22.5156 7.04688 22.625 7.3125 22.625 7.625C22.625 7.8125 22.5813 7.9875 22.4937 8.15C22.4062 8.3125 22.2937 8.44375 22.1562 8.54375L24.5 11.75L26.8438 10.7C26.8188 10.6375 26.7969 10.5688 26.7781 10.4938C26.7594 10.4188 26.75 10.3375 26.75 10.25C26.75 9.9375 26.8594 9.67188 27.0781 9.45312C27.2969 9.23438 27.5625 9.125 27.875 9.125C28.1875 9.125 28.4531 9.23438 28.6719 9.45312C28.8906 9.67188 29 9.9375 29 10.25C29 10.5625 28.8906 10.8281 28.6719 11.0469C28.4531 11.2656 28.1875 11.375 27.875 11.375C27.85 11.375 27.8219 11.3719 27.7906 11.3656C27.7594 11.3594 27.7312 11.3562 27.7062 11.3562L26.75 17.375H16.25Z" fill="white"/>
</g>
<path d="M43.5092 12.5348C43.4131 12.2332 43.2839 11.9631 43.1214 11.7244C42.9624 11.4825 42.7718 11.277 42.5497 11.108C42.3277 10.9356 42.0741 10.8047 41.7891 10.7152C41.5073 10.6257 41.1974 10.581 40.8594 10.581C40.286 10.581 39.7689 10.7285 39.3082 11.0234C38.8475 11.3184 38.483 11.7509 38.2145 12.321C37.9493 12.8878 37.8168 13.5821 37.8168 14.4041C37.8168 15.2294 37.951 15.9271 38.2195 16.4972C38.4879 17.0672 38.8558 17.4998 39.3232 17.7947C39.7905 18.0897 40.3224 18.2372 40.919 18.2372C41.4725 18.2372 41.9548 18.1245 42.3658 17.8991C42.7801 17.6738 43.0999 17.3556 43.3253 16.9446C43.554 16.5303 43.6683 16.0431 43.6683 15.483L44.0661 15.5575H41.1527V14.2898H45.1548V15.4482C45.1548 16.3033 44.9725 17.0457 44.608 17.6754C44.2467 18.3018 43.7462 18.7857 43.1065 19.1271C42.4702 19.4685 41.741 19.6392 40.919 19.6392C39.9976 19.6392 39.1889 19.4271 38.4929 19.0028C37.8002 18.5786 37.2599 17.977 36.8722 17.1982C36.4844 16.416 36.2905 15.4879 36.2905 14.4141C36.2905 13.602 36.4032 12.8729 36.6286 12.2266C36.8539 11.5803 37.1705 11.0317 37.5781 10.581C37.9891 10.1269 38.4714 9.78054 39.0249 9.5419C39.5817 9.29995 40.1899 9.17898 40.8494 9.17898C41.3996 9.17898 41.9117 9.26018 42.3857 9.42258C42.8629 9.58499 43.2872 9.81534 43.6584 10.1136C44.0329 10.4119 44.3428 10.7666 44.5881 11.1776C44.8333 11.5852 44.9991 12.0376 45.0852 12.5348H43.5092ZM50.2022 19.6541C49.4863 19.6541 48.8616 19.4901 48.3279 19.1619C47.7943 18.8338 47.38 18.3748 47.085 17.7848C46.7901 17.1948 46.6426 16.5054 46.6426 15.7166C46.6426 14.9245 46.7901 14.2318 47.085 13.6385C47.38 13.0452 47.7943 12.5845 48.3279 12.2564C48.8616 11.9283 49.4863 11.7642 50.2022 11.7642C50.9181 11.7642 51.5429 11.9283 52.0765 12.2564C52.6101 12.5845 53.0244 13.0452 53.3194 13.6385C53.6144 14.2318 53.7619 14.9245 53.7619 15.7166C53.7619 16.5054 53.6144 17.1948 53.3194 17.7848C53.0244 18.3748 52.6101 18.8338 52.0765 19.1619C51.5429 19.4901 50.9181 19.6541 50.2022 19.6541ZM50.2072 18.4062C50.6712 18.4062 51.0557 18.2836 51.3606 18.0384C51.6655 17.7931 51.8909 17.4666 52.0368 17.0589C52.1859 16.6513 52.2605 16.2022 52.2605 15.7116C52.2605 15.2244 52.1859 14.777 52.0368 14.3693C51.8909 13.9583 51.6655 13.6286 51.3606 13.38C51.0557 13.1314 50.6712 13.0071 50.2072 13.0071C49.7399 13.0071 49.3521 13.1314 49.0439 13.38C48.7389 13.6286 48.5119 13.9583 48.3627 14.3693C48.2169 14.777 48.144 15.2244 48.144 15.7116C48.144 16.2022 48.2169 16.6513 48.3627 17.0589C48.5119 17.4666 48.7389 17.7931 49.0439 18.0384C49.3521 18.2836 49.7399 18.4062 50.2072 18.4062ZM56.9077 9.31818V19.5H55.4212V9.31818H56.9077ZM61.7662 19.6491C61.1497 19.6491 60.5995 19.4917 60.1156 19.1768C59.635 18.8587 59.2572 18.4062 58.9821 17.8196C58.7103 17.2296 58.5744 16.522 58.5744 15.6967C58.5744 14.8714 58.7119 14.1655 58.987 13.5788C59.2654 12.9922 59.6466 12.5431 60.1305 12.2315C60.6144 11.92 61.1629 11.7642 61.7761 11.7642C62.2501 11.7642 62.6312 11.8438 62.9196 12.0028C63.2112 12.1586 63.4366 12.3409 63.5957 12.5497C63.7581 12.7585 63.8841 12.9425 63.9735 13.1016H64.063V9.31818H65.5495V19.5H64.0978V18.3118H63.9735C63.8841 18.4742 63.7548 18.6598 63.5858 18.8686C63.42 19.0774 63.1913 19.2597 62.8997 19.4155C62.608 19.5713 62.2302 19.6491 61.7662 19.6491ZM62.0943 18.3814C62.5218 18.3814 62.8831 18.2687 63.1781 18.0433C63.4764 17.8146 63.7018 17.4981 63.8542 17.0938C64.01 16.6894 64.0879 16.2187 64.0879 15.6818C64.0879 15.1515 64.0117 14.6875 63.8592 14.2898C63.7067 13.892 63.483 13.5821 63.188 13.3601C62.8931 13.138 62.5285 13.027 62.0943 13.027C61.6468 13.027 61.274 13.143 60.9757 13.375C60.6774 13.607 60.452 13.9235 60.2995 14.3246C60.1504 14.7256 60.0758 15.178 60.0758 15.6818C60.0758 16.1922 60.152 16.6513 60.3045 17.0589C60.457 17.4666 60.6824 17.7898 60.9806 18.0284C61.2823 18.2637 61.6535 18.3814 62.0943 18.3814Z" fill="white"/>
</svg>
