<svg width="18" height="18" viewBox="0 0 18 18" fill="none" xmlns="http://www.w3.org/2000/svg">
<mask id="mask0_702_915" style="mask-type:alpha" maskUnits="userSpaceOnUse" x="0" y="0" width="18" height="18">
<rect width="18" height="18" fill="#D9D9D9"/>
</mask>
<g mask="url(#mask0_702_915)">
<path d="M1.50006 8.25024L5.25006 1.50024L9.00006 8.25024H1.50006ZM5.25006 15.7502C4.42506 15.7502 3.71881 15.4565 3.13131 14.869C2.54381 14.2815 2.25006 13.5752 2.25006 12.7502C2.25006 11.9252 2.54381 11.219 3.13131 10.6315C3.71881 10.044 4.42506 9.75024 5.25006 9.75024C6.07506 9.75024 6.78131 10.044 7.36881 10.6315C7.95631 11.219 8.25006 11.9252 8.25006 12.7502C8.25006 13.5752 7.95631 14.2815 7.36881 14.869C6.78131 15.4565 6.07506 15.7502 5.25006 15.7502ZM9.75006 15.7502V9.75024H15.7501V15.7502H9.75006ZM12.7501 8.25024C12.0376 7.65024 11.4407 7.14399 10.9594 6.73149C10.4782 6.31899 10.0938 5.95649 9.80631 5.64399C9.51881 5.33149 9.31256 5.03774 9.18756 4.76274C9.06256 4.48774 9.00006 4.19399 9.00006 3.88149C9.00006 3.31899 9.19694 2.84399 9.59069 2.45649C9.98444 2.06899 10.4751 1.87524 11.0626 1.87524C11.4001 1.87524 11.7157 1.95337 12.0094 2.10962C12.3032 2.26587 12.5501 2.48149 12.7501 2.75649C12.9501 2.48149 13.1969 2.26587 13.4907 2.10962C13.7844 1.95337 14.1001 1.87524 14.4376 1.87524C15.0251 1.87524 15.5157 2.06899 15.9094 2.45649C16.3032 2.84399 16.5001 3.31899 16.5001 3.88149C16.5001 4.19399 16.4376 4.48774 16.3126 4.76274C16.1876 5.03774 15.9813 5.33149 15.6938 5.64399C15.4063 5.95649 15.0219 6.31899 14.5407 6.73149C14.0594 7.14399 13.4626 7.65024 12.7501 8.25024Z" fill="black"/>
</g>
</svg>
