<svg width="18" height="18" viewBox="0 0 18 18" fill="none" xmlns="http://www.w3.org/2000/svg">
<path d="M11.75 17.25L6.25 15.325L1.9875 16.975C1.68194 17.0972 1.39931 17.0628 1.13958 16.8719C0.879861 16.6809 0.75 16.425 0.75 16.1042V3.27083C0.75 3.07222 0.807292 2.89653 0.921875 2.74375C1.03646 2.59097 1.19306 2.47639 1.39167 2.4L6.25 0.75L11.75 2.675L16.0125 1.025C16.3181 0.902778 16.6007 0.937153 16.8604 1.12813C17.1201 1.3191 17.25 1.575 17.25 1.89583V14.7292C17.25 14.9278 17.1927 15.1035 17.0781 15.2563C16.9635 15.409 16.8069 15.5236 16.6083 15.6L11.75 17.25ZM10.8333 15.0042V4.27917L7.16667 2.99583V13.7208L10.8333 15.0042Z" fill="white"/>
</svg>
