<svg width="96" height="40" viewBox="0 0 96 40" fill="none" xmlns="http://www.w3.org/2000/svg">
<g filter="url(#filter0_d_702_894)">
<rect x="4" y="4" width="88" height="32" rx="16" fill="#F8F2F8" shape-rendering="crispEdges"/>
<mask id="mask0_702_894" style="mask-type:alpha" maskUnits="userSpaceOnUse" x="16" y="11" width="19" height="18">
<rect x="16.5" y="11" width="18" height="18" fill="#D9D9D9"/>
</mask>
<g mask="url(#mask0_702_894)">
<path d="M29.625 26C29.1 26 28.6562 25.8188 28.2938 25.4563C27.9313 25.0938 27.75 24.65 27.75 24.125C27.75 23.6 27.9313 23.1562 28.2938 22.7938C28.6562 22.4313 29.1 22.25 29.625 22.25C29.725 22.25 29.8375 22.2594 29.9625 22.2781C30.0875 22.2969 30.225 22.3375 30.375 22.4V18.5H33V20H31.5V24.125C31.5 24.65 31.3187 25.0938 30.9562 25.4563C30.5938 25.8188 30.15 26 29.625 26ZM24.75 20C23.925 20 23.2188 19.7063 22.6313 19.1188C22.0438 18.5312 21.75 17.825 21.75 17C21.75 16.175 22.0438 15.4688 22.6313 14.8813C23.2188 14.2938 23.925 14 24.75 14C25.575 14 26.2812 14.2938 26.8687 14.8813C27.4563 15.4688 27.75 16.175 27.75 17C27.75 17.825 27.4563 18.5312 26.8687 19.1188C26.2812 19.7063 25.575 20 24.75 20ZM18.75 26V23.9C18.75 23.4625 18.8594 23.0688 19.0781 22.7188C19.2969 22.3687 19.5875 22.1 19.95 21.9125C20.725 21.525 21.5125 21.2344 22.3125 21.0406C23.1125 20.8469 23.925 20.75 24.75 20.75C25.275 20.75 25.7969 20.7906 26.3156 20.8719C26.8344 20.9531 27.3562 21.075 27.8813 21.2375C27.0563 21.7375 26.5437 22.4531 26.3438 23.3844C26.1438 24.3156 26.3063 25.1875 26.8313 26H18.75Z" fill="black"/>
</g>
<path d="M40.6186 15.3182H42.483L45.7244 23.233H45.8438L49.0852 15.3182H50.9496V25.5H49.4879V18.1321H49.3935L46.3906 25.4851H45.1776L42.1747 18.1271H42.0803V25.5H40.6186V15.3182ZM57.9011 22.3331V17.8636H59.3926V25.5H57.9309V24.1776H57.8514C57.6757 24.5852 57.394 24.925 57.0062 25.1967C56.6217 25.4652 56.1428 25.5994 55.5694 25.5994C55.0789 25.5994 54.6447 25.4917 54.2669 25.2763C53.8923 25.0575 53.5974 24.7344 53.3819 24.3068C53.1698 23.8793 53.0637 23.3506 53.0637 22.7209V17.8636H54.5502V22.5419C54.5502 23.0623 54.6944 23.4766 54.9828 23.7848C55.2711 24.093 55.6457 24.2472 56.1064 24.2472C56.3848 24.2472 56.6615 24.1776 56.9366 24.0384C57.215 23.8991 57.4454 23.6887 57.6277 23.407C57.8133 23.1252 57.9044 22.7673 57.9011 22.3331ZM67.1122 19.728L65.7649 19.9666C65.7086 19.7943 65.6191 19.6302 65.4964 19.4744C65.3771 19.3187 65.2147 19.1911 65.0092 19.0916C64.8037 18.9922 64.5469 18.9425 64.2386 18.9425C63.8177 18.9425 63.4664 19.0369 63.1847 19.2259C62.9029 19.4115 62.7621 19.6518 62.7621 19.9467C62.7621 20.2019 62.8565 20.4074 63.0455 20.5632C63.2344 20.719 63.5393 20.8466 63.9602 20.946L65.1733 21.2244C65.8759 21.3868 66.3996 21.6371 66.7443 21.9751C67.089 22.3132 67.2614 22.7524 67.2614 23.2926C67.2614 23.75 67.1288 24.1577 66.8636 24.5156C66.6018 24.8703 66.2356 25.1487 65.7649 25.3509C65.2976 25.553 64.7557 25.6541 64.1392 25.6541C63.2841 25.6541 62.5864 25.4718 62.0462 25.1072C61.5059 24.7393 61.1745 24.2173 61.0518 23.5412L62.4886 23.3224C62.5781 23.697 62.7621 23.9804 63.0405 24.1726C63.3189 24.3615 63.6818 24.456 64.1293 24.456C64.6165 24.456 65.0059 24.3549 65.2976 24.1527C65.5893 23.9472 65.7351 23.697 65.7351 23.402C65.7351 23.1634 65.6456 22.9628 65.4666 22.8004C65.291 22.638 65.0208 22.5154 64.6562 22.4325L63.3636 22.1491C62.651 21.9867 62.1241 21.7282 61.7827 21.3736C61.4446 21.0189 61.2756 20.5698 61.2756 20.0263C61.2756 19.5755 61.4015 19.1811 61.6534 18.843C61.9053 18.505 62.2533 18.2415 62.6974 18.0526C63.1416 17.8603 63.6503 17.7642 64.2237 17.7642C65.049 17.7642 65.6986 17.9432 66.1726 18.3011C66.6465 18.6558 66.9598 19.1314 67.1122 19.728ZM68.8958 25.5V17.8636H70.3823V25.5H68.8958ZM69.6465 16.6854C69.388 16.6854 69.1659 16.5992 68.9803 16.4268C68.798 16.2512 68.7069 16.0424 68.7069 15.8004C68.7069 15.5552 68.798 15.3464 68.9803 15.174C69.1659 14.9983 69.388 14.9105 69.6465 14.9105C69.905 14.9105 70.1254 14.9983 70.3077 15.174C70.4933 15.3464 70.5861 15.5552 70.5861 15.8004C70.5861 16.0424 70.4933 16.2512 70.3077 16.4268C70.1254 16.5992 69.905 16.6854 69.6465 16.6854ZM75.5987 25.6541C74.8596 25.6541 74.2232 25.4867 73.6896 25.152C73.1593 24.8139 72.7517 24.3482 72.4666 23.755C72.1816 23.1617 72.0391 22.4822 72.0391 21.7166C72.0391 20.9411 72.1849 20.2566 72.4766 19.6634C72.7682 19.0668 73.1792 18.6011 73.7095 18.2663C74.2398 17.9316 74.8646 17.7642 75.5838 17.7642C76.1638 17.7642 76.6809 17.8719 77.1349 18.0874C77.589 18.2995 77.9553 18.5978 78.2337 18.9822C78.5154 19.3667 78.6828 19.8158 78.7358 20.3295H77.2891C77.2095 19.9716 77.0272 19.6634 76.7422 19.4048C76.4605 19.1463 76.0826 19.017 75.6087 19.017C75.1944 19.017 74.8314 19.1264 74.5199 19.3452C74.2116 19.5606 73.9714 19.8688 73.799 20.2699C73.6267 20.6676 73.5405 21.1383 73.5405 21.6818C73.5405 22.2386 73.625 22.7192 73.794 23.1236C73.9631 23.5279 74.2017 23.8411 74.5099 24.0632C74.8215 24.2853 75.1877 24.3963 75.6087 24.3963C75.8904 24.3963 76.1456 24.3449 76.3743 24.2422C76.6063 24.1361 76.8002 23.9853 76.956 23.7898C77.1151 23.5942 77.2261 23.3589 77.2891 23.0838H78.7358C78.6828 23.5777 78.522 24.0185 78.2536 24.4062C77.9851 24.794 77.6255 25.099 77.1747 25.321C76.7273 25.5431 76.2019 25.6541 75.5987 25.6541Z" fill="black"/>
</g>
<defs>
<filter id="filter0_d_702_894" x="0" y="0" width="96" height="40" filterUnits="userSpaceOnUse" color-interpolation-filters="sRGB">
<feFlood flood-opacity="0" result="BackgroundImageFix"/>
<feColorMatrix in="SourceAlpha" type="matrix" values="0 0 0 0 0 0 0 0 0 0 0 0 0 0 0 0 0 0 127 0" result="hardAlpha"/>
<feOffset/>
<feGaussianBlur stdDeviation="2"/>
<feComposite in2="hardAlpha" operator="out"/>
<feColorMatrix type="matrix" values="0 0 0 0 0 0 0 0 0 0 0 0 0 0 0 0 0 0 0.25 0"/>
<feBlend mode="normal" in2="BackgroundImageFix" result="effect1_dropShadow_702_894"/>
<feBlend mode="normal" in="SourceGraphic" in2="effect1_dropShadow_702_894" result="shape"/>
</filter>
</defs>
</svg>
