<svg width="22" height="16" viewBox="0 0 22 16" fill="none" xmlns="http://www.w3.org/2000/svg">
<path d="M16.5 9.83342V7.08342H13.75V5.25008H16.5V2.50008H18.3334V5.25008H21.0834V7.08342H18.3334V9.83342H16.5ZM8.25002 8.00008C7.24169 8.00008 6.37849 7.64105 5.66044 6.923C4.94238 6.20494 4.58335 5.34175 4.58335 4.33341C4.58335 3.32508 4.94238 2.46189 5.66044 1.74383C6.37849 1.02578 7.24169 0.666748 8.25002 0.666748C9.25835 0.666748 10.1215 1.02578 10.8396 1.74383C11.5577 2.46189 11.9167 3.32508 11.9167 4.33341C11.9167 5.34175 11.5577 6.20494 10.8396 6.923C10.1215 7.64105 9.25835 8.00008 8.25002 8.00008ZM0.916687 15.3334V12.7667C0.916687 12.2473 1.05037 11.7699 1.31773 11.3345C1.58509 10.899 1.9403 10.5667 2.38335 10.3376C3.33058 9.86397 4.29308 9.50876 5.27085 9.27196C6.24863 9.03515 7.24169 8.91675 8.25002 8.91675C9.25835 8.91675 10.2514 9.03515 11.2292 9.27196C12.207 9.50876 13.1695 9.86397 14.1167 10.3376C14.5597 10.5667 14.915 10.899 15.1823 11.3345C15.4497 11.7699 15.5834 12.2473 15.5834 12.7667V15.3334H0.916687ZM2.75002 13.5001H13.75V12.7667C13.75 12.5987 13.708 12.4459 13.624 12.3084C13.54 12.1709 13.4292 12.064 13.2917 11.9876C12.4667 11.5751 11.634 11.2657 10.7938 11.0595C9.95349 10.8532 9.10558 10.7501 8.25002 10.7501C7.39446 10.7501 6.54655 10.8532 5.70627 11.0595C4.86599 11.2657 4.03335 11.5751 3.20835 11.9876C3.07085 12.064 2.96009 12.1709 2.87606 12.3084C2.79203 12.4459 2.75002 12.5987 2.75002 12.7667V13.5001ZM8.25002 6.16675C8.75419 6.16675 9.18578 5.98723 9.54481 5.62821C9.90384 5.26918 10.0834 4.83758 10.0834 4.33341C10.0834 3.82925 9.90384 3.39765 9.54481 3.03862C9.18578 2.6796 8.75419 2.50008 8.25002 2.50008C7.74585 2.50008 7.31426 2.6796 6.95523 3.03862C6.5962 3.39765 6.41669 3.82925 6.41669 4.33341C6.41669 4.83758 6.5962 5.26918 6.95523 5.62821C7.31426 5.98723 7.74585 6.16675 8.25002 6.16675Z" fill="white"/>
</svg>
