<svg width="138" height="40" viewBox="0 0 138 40" fill="none" xmlns="http://www.w3.org/2000/svg">
<g filter="url(#filter0_d_702_904)">
<rect x="3" y="4" width="131" height="32" rx="16" fill="#F8F2F8" shape-rendering="crispEdges"/>
<mask id="mask0_702_904" style="mask-type:alpha" maskUnits="userSpaceOnUse" x="13" y="11" width="19" height="18">
<rect x="13.5" y="11" width="18" height="18" fill="#D9D9D9"/>
</mask>
<g mask="url(#mask0_702_904)">
<path d="M22.5 24.125C23.4375 24.125 24.2344 23.7969 24.8906 23.1406C25.5469 22.4844 25.875 21.6875 25.875 20.75C25.875 19.8125 25.5469 19.0156 24.8906 18.3594C24.2344 17.7031 23.4375 17.375 22.5 17.375C21.5625 17.375 20.7656 17.7031 20.1094 18.3594C19.4531 19.0156 19.125 19.8125 19.125 20.75C19.125 21.6875 19.4531 22.4844 20.1094 23.1406C20.7656 23.7969 21.5625 24.125 22.5 24.125ZM22.5 22.625C21.975 22.625 21.5313 22.4438 21.1688 22.0813C20.8063 21.7188 20.625 21.275 20.625 20.75C20.625 20.225 20.8063 19.7813 21.1688 19.4188C21.5313 19.0563 21.975 18.875 22.5 18.875C23.025 18.875 23.4688 19.0563 23.8313 19.4188C24.1938 19.7813 24.375 20.225 24.375 20.75C24.375 21.275 24.1938 21.7188 23.8313 22.0813C23.4688 22.4438 23.025 22.625 22.5 22.625ZM16.5 26.75C16.0875 26.75 15.7344 26.6031 15.4406 26.3094C15.1469 26.0156 15 25.6625 15 25.25V16.25C15 15.8375 15.1469 15.4844 15.4406 15.1906C15.7344 14.8969 16.0875 14.75 16.5 14.75H18.8625L20.25 13.25H24.75L26.1375 14.75H28.5C28.9125 14.75 29.2656 14.8969 29.5594 15.1906C29.8531 15.4844 30 15.8375 30 16.25V25.25C30 25.6625 29.8531 26.0156 29.5594 26.3094C29.2656 26.6031 28.9125 26.75 28.5 26.75H16.5Z" fill="black"/>
</g>
<path d="M37.6186 25.5V15.3182H41.2479C42.04 15.3182 42.6963 15.4624 43.2166 15.7507C43.737 16.0391 44.1264 16.4335 44.3849 16.9339C44.6435 17.4311 44.7727 17.9912 44.7727 18.6143C44.7727 19.2408 44.6418 19.8042 44.38 20.3047C44.1214 20.8018 43.7304 21.1963 43.2067 21.4879C42.6863 21.7763 42.0317 21.9205 41.2429 21.9205H38.7472V20.6179H41.1037C41.6042 20.6179 42.0102 20.5317 42.3217 20.3594C42.6333 20.1837 42.862 19.9451 43.0078 19.6435C43.1536 19.3419 43.2266 18.9988 43.2266 18.6143C43.2266 18.2299 43.1536 17.8885 43.0078 17.5902C42.862 17.2919 42.6316 17.0582 42.3168 16.8892C42.0052 16.7202 41.5942 16.6357 41.0838 16.6357H39.1548V25.5H37.6186ZM47.9409 20.9659V25.5H46.4544V15.3182H47.921V19.1065H48.0154C48.1944 18.6955 48.4679 18.3691 48.8358 18.1271C49.2037 17.8852 49.6842 17.7642 50.2775 17.7642C50.8012 17.7642 51.2586 17.8719 51.6497 18.0874C52.0441 18.3028 52.349 18.6243 52.5645 19.0518C52.7832 19.4761 52.8926 20.0064 52.8926 20.6428V25.5H51.4061V20.8217C51.4061 20.2616 51.2619 19.8274 50.9735 19.5192C50.6852 19.2076 50.2842 19.0518 49.7704 19.0518C49.4191 19.0518 49.1042 19.1264 48.8258 19.2756C48.5507 19.4247 48.3336 19.6435 48.1745 19.9318C48.0188 20.2169 47.9409 20.5616 47.9409 20.9659ZM58.0929 25.6541C57.377 25.6541 56.7522 25.4901 56.2186 25.1619C55.685 24.8338 55.2707 24.3748 54.9757 23.7848C54.6807 23.1948 54.5332 22.5054 54.5332 21.7166C54.5332 20.9245 54.6807 20.2318 54.9757 19.6385C55.2707 19.0452 55.685 18.5845 56.2186 18.2564C56.7522 17.9283 57.377 17.7642 58.0929 17.7642C58.8088 17.7642 59.4335 17.9283 59.9672 18.2564C60.5008 18.5845 60.9151 19.0452 61.21 19.6385C61.505 20.2318 61.6525 20.9245 61.6525 21.7166C61.6525 22.5054 61.505 23.1948 61.21 23.7848C60.9151 24.3748 60.5008 24.8338 59.9672 25.1619C59.4335 25.4901 58.8088 25.6541 58.0929 25.6541ZM58.0978 24.4062C58.5618 24.4062 58.9463 24.2836 59.2512 24.0384C59.5562 23.7931 59.7815 23.4666 59.9274 23.0589C60.0765 22.6513 60.1511 22.2022 60.1511 21.7116C60.1511 21.2244 60.0765 20.777 59.9274 20.3693C59.7815 19.9583 59.5562 19.6286 59.2512 19.38C58.9463 19.1314 58.5618 19.0071 58.0978 19.0071C57.6305 19.0071 57.2427 19.1314 56.9345 19.38C56.6296 19.6286 56.4025 19.9583 56.2534 20.3693C56.1075 20.777 56.0346 21.2244 56.0346 21.7116C56.0346 22.2022 56.1075 22.6513 56.2534 23.0589C56.4025 23.4666 56.6296 23.7931 56.9345 24.0384C57.2427 24.2836 57.6305 24.4062 58.0978 24.4062ZM66.8764 17.8636V19.0568H62.7053V17.8636H66.8764ZM63.8239 16.0341H65.3104V23.2578C65.3104 23.5462 65.3535 23.7633 65.4396 23.9091C65.5258 24.0516 65.6368 24.1494 65.7727 24.2024C65.9119 24.2521 66.0627 24.277 66.2251 24.277C66.3445 24.277 66.4489 24.2687 66.5384 24.2521C66.6278 24.2356 66.6974 24.2223 66.7472 24.2124L67.0156 25.4403C66.9295 25.4735 66.8068 25.5066 66.6477 25.5398C66.4886 25.5762 66.2898 25.5961 66.0511 25.5994C65.66 25.6061 65.2955 25.5365 64.9574 25.3906C64.6193 25.2448 64.3459 25.0194 64.1371 24.7145C63.9283 24.4096 63.8239 24.0268 63.8239 23.5661V16.0341ZM71.6554 25.6541C70.9395 25.6541 70.3147 25.4901 69.7811 25.1619C69.2475 24.8338 68.8332 24.3748 68.5382 23.7848C68.2432 23.1948 68.0957 22.5054 68.0957 21.7166C68.0957 20.9245 68.2432 20.2318 68.5382 19.6385C68.8332 19.0452 69.2475 18.5845 69.7811 18.2564C70.3147 17.9283 70.9395 17.7642 71.6554 17.7642C72.3713 17.7642 72.996 17.9283 73.5297 18.2564C74.0633 18.5845 74.4776 19.0452 74.7725 19.6385C75.0675 20.2318 75.215 20.9245 75.215 21.7166C75.215 22.5054 75.0675 23.1948 74.7725 23.7848C74.4776 24.3748 74.0633 24.8338 73.5297 25.1619C72.996 25.4901 72.3713 25.6541 71.6554 25.6541ZM71.6603 24.4062C72.1243 24.4062 72.5088 24.2836 72.8137 24.0384C73.1187 23.7931 73.344 23.4666 73.4899 23.0589C73.639 22.6513 73.7136 22.2022 73.7136 21.7116C73.7136 21.2244 73.639 20.777 73.4899 20.3693C73.344 19.9583 73.1187 19.6286 72.8137 19.38C72.5088 19.1314 72.1243 19.0071 71.6603 19.0071C71.193 19.0071 70.8052 19.1314 70.497 19.38C70.1921 19.6286 69.965 19.9583 69.8159 20.3693C69.67 20.777 69.5971 21.2244 69.5971 21.7116C69.5971 22.2022 69.67 22.6513 69.8159 23.0589C69.965 23.4666 70.1921 23.7931 70.497 24.0384C70.8052 24.2836 71.193 24.4062 71.6603 24.4062ZM80.076 28.5227C79.4695 28.5227 78.9474 28.4432 78.5099 28.2841C78.0758 28.125 77.7211 27.9145 77.446 27.6527C77.1709 27.3909 76.9654 27.1042 76.8295 26.7926L78.1072 26.2656C78.1967 26.4115 78.3161 26.5656 78.4652 26.728C78.6177 26.8937 78.8232 27.0346 79.0817 27.1506C79.3435 27.2666 79.6799 27.3246 80.0909 27.3246C80.6544 27.3246 81.12 27.187 81.4879 26.9119C81.8558 26.6402 82.0398 26.206 82.0398 25.6094V24.108H81.9453C81.8558 24.2704 81.7266 24.451 81.5575 24.6499C81.3918 24.8487 81.1631 25.0211 80.8714 25.1669C80.5798 25.3127 80.2003 25.3857 79.733 25.3857C79.1297 25.3857 78.5862 25.2448 78.1023 24.9631C77.6217 24.678 77.2405 24.2588 76.9588 23.7053C76.6804 23.1484 76.5412 22.464 76.5412 21.652C76.5412 20.84 76.6787 20.1439 76.9538 19.5639C77.2322 18.9839 77.6134 18.5398 78.0973 18.2315C78.5812 17.92 79.1297 17.7642 79.7429 17.7642C80.2169 17.7642 80.5997 17.8438 80.8913 18.0028C81.183 18.1586 81.41 18.3409 81.5724 18.5497C81.7382 18.7585 81.8658 18.9425 81.9553 19.1016H82.0646V17.8636H83.5213V25.669C83.5213 26.3253 83.3688 26.8639 83.0639 27.2848C82.759 27.7057 82.3464 28.0173 81.826 28.2195C81.3089 28.4216 80.7256 28.5227 80.076 28.5227ZM80.0611 24.1527C80.4886 24.1527 80.8499 24.0533 81.1449 23.8544C81.4432 23.6522 81.6686 23.3639 81.821 22.9893C81.9768 22.6115 82.0547 22.1591 82.0547 21.6321C82.0547 21.1184 81.9785 20.666 81.826 20.2749C81.6735 19.8838 81.4498 19.5788 81.1548 19.3601C80.8598 19.138 80.4953 19.027 80.0611 19.027C79.6136 19.027 79.2408 19.143 78.9425 19.375C78.6442 19.6037 78.4188 19.9152 78.2663 20.3097C78.1172 20.7041 78.0426 21.1449 78.0426 21.6321C78.0426 22.1326 78.1188 22.5717 78.2713 22.9496C78.4238 23.3274 78.6491 23.6224 78.9474 23.8345C79.2491 24.0466 79.6203 24.1527 80.0611 24.1527ZM85.5149 25.5V17.8636H86.9517V19.0767H87.0312C87.1705 18.6657 87.4157 18.3426 87.767 18.1072C88.1217 17.8686 88.5227 17.7493 88.9702 17.7493C89.063 17.7493 89.1723 17.7526 89.2983 17.7592C89.4276 17.7659 89.5286 17.7741 89.6016 17.7841V19.206C89.5419 19.1894 89.4358 19.1712 89.2834 19.1513C89.1309 19.1281 88.9785 19.1165 88.826 19.1165C88.4747 19.1165 88.1615 19.1911 87.8864 19.3402C87.6146 19.486 87.3991 19.6899 87.2401 19.9517C87.081 20.2102 87.0014 20.5052 87.0014 20.8366V25.5H85.5149ZM93.0419 25.669C92.558 25.669 92.1205 25.5795 91.7294 25.4006C91.3383 25.2183 91.0284 24.9548 90.7997 24.6101C90.5743 24.2654 90.4616 23.8428 90.4616 23.3423C90.4616 22.9115 90.5445 22.5568 90.7102 22.2784C90.8759 22 91.0997 21.7796 91.3814 21.6172C91.6631 21.4548 91.978 21.3321 92.326 21.2493C92.674 21.1664 93.0286 21.1035 93.3899 21.0604C93.8473 21.0073 94.2185 20.9643 94.5036 20.9311C94.7886 20.8946 94.9957 20.8366 95.125 20.7571C95.2543 20.6776 95.3189 20.5483 95.3189 20.3693V20.3345C95.3189 19.9003 95.1963 19.5639 94.951 19.3253C94.709 19.0866 94.3478 18.9673 93.8672 18.9673C93.3667 18.9673 92.9723 19.0784 92.6839 19.3004C92.3989 19.5192 92.2017 19.7628 92.0923 20.0312L90.6953 19.7131C90.861 19.2491 91.103 18.8745 91.4212 18.5895C91.7427 18.3011 92.1122 18.0923 92.5298 17.9631C92.9474 17.8305 93.3866 17.7642 93.8473 17.7642C94.1522 17.7642 94.4754 17.8007 94.8168 17.8736C95.1615 17.9432 95.483 18.0724 95.7812 18.2614C96.0829 18.4503 96.3298 18.7204 96.522 19.0717C96.7143 19.4197 96.8104 19.8722 96.8104 20.429V25.5H95.3587V24.456H95.299C95.2029 24.6482 95.0587 24.8371 94.8665 25.0227C94.6742 25.2083 94.4273 25.3625 94.1257 25.4851C93.8241 25.6077 93.4628 25.669 93.0419 25.669ZM93.3651 24.4759C93.776 24.4759 94.1274 24.3946 94.419 24.2322C94.714 24.0698 94.9377 23.8577 95.0902 23.5959C95.246 23.3307 95.3239 23.0473 95.3239 22.7457V21.7614C95.2708 21.8144 95.1681 21.8641 95.0156 21.9105C94.8665 21.9536 94.6958 21.9917 94.5036 22.0249C94.3113 22.0547 94.1241 22.0829 93.9418 22.1094C93.7595 22.1326 93.607 22.1525 93.4844 22.169C93.196 22.2055 92.9325 22.2668 92.6939 22.353C92.4586 22.4392 92.2696 22.5634 92.1271 22.7259C91.9879 22.8849 91.9183 23.0971 91.9183 23.3622C91.9183 23.7301 92.0542 24.0085 92.326 24.1974C92.5978 24.383 92.9441 24.4759 93.3651 24.4759ZM98.7903 28.3636V17.8636H100.242V19.1016H100.366C100.452 18.9425 100.577 18.7585 100.739 18.5497C100.902 18.3409 101.127 18.1586 101.415 18.0028C101.704 17.8438 102.085 17.7642 102.559 17.7642C103.175 17.7642 103.725 17.92 104.209 18.2315C104.693 18.5431 105.073 18.9922 105.348 19.5788C105.626 20.1655 105.765 20.8714 105.765 21.6967C105.765 22.522 105.628 23.2296 105.353 23.8196C105.078 24.4062 104.7 24.8587 104.219 25.1768C103.739 25.4917 103.19 25.6491 102.574 25.6491C102.11 25.6491 101.73 25.5713 101.435 25.4155C101.144 25.2597 100.915 25.0774 100.749 24.8686C100.583 24.6598 100.456 24.4742 100.366 24.3118H100.277V28.3636H98.7903ZM100.247 21.6818C100.247 22.2187 100.325 22.6894 100.481 23.0938C100.636 23.4981 100.862 23.8146 101.157 24.0433C101.452 24.2687 101.813 24.3814 102.241 24.3814C102.685 24.3814 103.056 24.2637 103.354 24.0284C103.653 23.7898 103.878 23.4666 104.03 23.0589C104.186 22.6513 104.264 22.1922 104.264 21.6818C104.264 21.178 104.188 20.7256 104.035 20.3246C103.886 19.9235 103.661 19.607 103.359 19.375C103.061 19.143 102.688 19.027 102.241 19.027C101.81 19.027 101.445 19.138 101.147 19.3601C100.852 19.5821 100.628 19.892 100.476 20.2898C100.323 20.6875 100.247 21.1515 100.247 21.6818ZM108.917 20.9659V25.5H107.431V15.3182H108.898V19.1065H108.992C109.171 18.6955 109.444 18.3691 109.812 18.1271C110.18 17.8852 110.661 17.7642 111.254 17.7642C111.778 17.7642 112.235 17.8719 112.626 18.0874C113.021 18.3028 113.326 18.6243 113.541 19.0518C113.76 19.4761 113.869 20.0064 113.869 20.6428V25.5H112.383V20.8217C112.383 20.2616 112.238 19.8274 111.95 19.5192C111.662 19.2076 111.261 19.0518 110.747 19.0518C110.396 19.0518 110.081 19.1264 109.802 19.2756C109.527 19.4247 109.31 19.6435 109.151 19.9318C108.995 20.2169 108.917 20.5616 108.917 20.9659ZM116.519 28.3636C116.297 28.3636 116.095 28.3454 115.912 28.3089C115.73 28.2758 115.594 28.2393 115.505 28.1996L115.863 26.9815C116.135 27.0545 116.376 27.0859 116.589 27.076C116.801 27.0661 116.988 26.9865 117.15 26.8374C117.316 26.6882 117.462 26.4446 117.588 26.1065L117.772 25.5994L114.978 17.8636H116.569L118.503 23.7898H118.582L120.516 17.8636H122.112L118.965 26.5192C118.819 26.9169 118.634 27.2533 118.408 27.5284C118.183 27.8068 117.914 28.0156 117.603 28.1548C117.291 28.294 116.93 28.3636 116.519 28.3636Z" fill="black"/>
</g>
<defs>
<filter id="filter0_d_702_904" x="-1" y="0" width="139" height="40" filterUnits="userSpaceOnUse" color-interpolation-filters="sRGB">
<feFlood flood-opacity="0" result="BackgroundImageFix"/>
<feColorMatrix in="SourceAlpha" type="matrix" values="0 0 0 0 0 0 0 0 0 0 0 0 0 0 0 0 0 0 127 0" result="hardAlpha"/>
<feOffset/>
<feGaussianBlur stdDeviation="2"/>
<feComposite in2="hardAlpha" operator="out"/>
<feColorMatrix type="matrix" values="0 0 0 0 0 0 0 0 0 0 0 0 0 0 0 0 0 0 0.25 0"/>
<feBlend mode="normal" in2="BackgroundImageFix" result="effect1_dropShadow_702_904"/>
<feBlend mode="normal" in="SourceGraphic" in2="effect1_dropShadow_702_904" result="shape"/>
</filter>
</defs>
</svg>
