<svg width="18" height="18" viewBox="0 0 18 18" fill="none" xmlns="http://www.w3.org/2000/svg">
<path d="M8.99988 15.75C8.77488 15.75 8.55925 15.7094 8.353 15.6281C8.14675 15.5469 7.96238 15.425 7.79988 15.2625L2.77488 10.2188C2.59988 10.0437 2.4405 9.85313 2.29675 9.64688C2.153 9.44063 2.03113 9.225 1.93113 9H8.90613C9.11863 9 9.29675 9.07188 9.4405 9.21563C9.58425 9.35938 9.65613 9.5375 9.65613 9.75C9.65613 9.9625 9.58425 10.1406 9.4405 10.2844C9.29675 10.4281 9.11863 10.5 8.90613 10.5C8.73113 10.5 8.57488 10.4531 8.43738 10.3594C8.29988 10.2656 8.21238 10.1313 8.17488 9.95625L6.73113 10.35C6.86863 10.8375 7.13738 11.2344 7.53738 11.5406C7.93738 11.8469 8.39363 12 8.90613 12C9.53113 12 10.0624 11.7812 10.4999 11.3438C10.9374 10.9062 11.1561 10.375 11.1561 9.75C11.1561 9.6125 11.1436 9.48438 11.1186 9.36563C11.0936 9.24688 11.0624 9.125 11.0249 9H11.9061C12.5311 9 13.0624 8.78125 13.4999 8.34375C13.9374 7.90625 14.1561 7.375 14.1561 6.75C14.1561 6.125 13.9374 5.59375 13.4999 5.15625C13.0624 4.71875 12.5311 4.5 11.9061 4.5C11.3936 4.5 10.9374 4.65313 10.5374 4.95937C10.1374 5.26562 9.86863 5.6625 9.73113 6.15L11.1749 6.54375C11.2124 6.36875 11.2999 6.23438 11.4374 6.14062C11.5749 6.04688 11.7311 6 11.9061 6C12.1186 6 12.2968 6.07187 12.4405 6.21562C12.5843 6.35938 12.6561 6.5375 12.6561 6.75C12.6561 6.9625 12.5843 7.14062 12.4405 7.28438C12.2968 7.42812 12.1186 7.5 11.9061 7.5H1.53738C1.52488 7.4 1.5155 7.30938 1.50925 7.22813C1.503 7.14688 1.49988 7.05625 1.49988 6.95625C1.49988 5.66875 1.91863 4.5625 2.75613 3.6375C3.59363 2.7125 4.63738 2.25 5.88738 2.25C6.48738 2.25 7.053 2.36875 7.58425 2.60625C8.1155 2.84375 8.58738 3.175 8.99988 3.6C9.39988 3.175 9.8655 2.84375 10.3968 2.60625C10.928 2.36875 11.4936 2.25 12.0936 2.25C13.3436 2.25 14.3905 2.7125 15.2343 3.6375C16.078 4.5625 16.4999 5.6625 16.4999 6.9375C16.4999 7.55 16.3936 8.1375 16.1811 8.7C15.9686 9.2625 15.6499 9.7625 15.2249 10.2L10.1811 15.2625C10.0186 15.425 9.83738 15.5469 9.63738 15.6281C9.43738 15.7094 9.22488 15.75 8.99988 15.75Z" fill="#1C1B1F"/>
<mask id="mask0_702_797" style="mask-type:alpha" maskUnits="userSpaceOnUse" x="0" y="0" width="18" height="18">
<rect width="18" height="18" fill="#D9D9D9"/>
</mask>
<g mask="url(#mask0_702_797)">
</g>
</svg>
