<svg width="30" height="30" viewBox="0 0 30 30" fill="none" xmlns="http://www.w3.org/2000/svg">
<circle cx="15" cy="15" r="15" fill="#14AE5C"/>
<mask id="mask0_380_463" style="mask-type:alpha" maskUnits="userSpaceOnUse" x="6" y="6" width="18" height="18">
<rect x="6" y="6" width="18" height="18" fill="#D9D9D9"/>
</mask>
<g mask="url(#mask0_380_463)">
<path d="M15 22.5C13.9625 22.5 12.9875 22.3031 12.075 21.9094C11.1625 21.5156 10.3688 20.9813 9.69375 20.3063C9.01875 19.6313 8.48438 18.8375 8.09063 17.925C7.69687 17.0125 7.5 16.0375 7.5 15C7.5 13.9625 7.69687 12.9875 8.09063 12.075C8.48438 11.1625 9.01875 10.3688 9.69375 9.69375C10.3688 9.01875 11.1625 8.48438 12.075 8.09063C12.9875 7.69687 13.9625 7.5 15 7.5C15.8125 7.5 16.5813 7.61875 17.3062 7.85625C18.0312 8.09375 18.7 8.425 19.3125 8.85L18.225 9.95625C17.75 9.65625 17.2438 9.42188 16.7063 9.25313C16.1688 9.08438 15.6 9 15 9C13.3375 9 11.9219 9.58438 10.7531 10.7531C9.58438 11.9219 9 13.3375 9 15C9 16.6625 9.58438 18.0781 10.7531 19.2469C11.9219 20.4156 13.3375 21 15 21C16.6625 21 18.0781 20.4156 19.2469 19.2469C20.4156 18.0781 21 16.6625 21 15C21 14.775 20.9875 14.55 20.9625 14.325C20.9375 14.1 20.9 13.8813 20.85 13.6688L22.0688 12.45C22.2063 12.85 22.3125 13.2625 22.3875 13.6875C22.4625 14.1125 22.5 14.55 22.5 15C22.5 16.0375 22.3031 17.0125 21.9094 17.925C21.5156 18.8375 20.9813 19.6313 20.3063 20.3063C19.6313 20.9813 18.8375 21.5156 17.925 21.9094C17.0125 22.3031 16.0375 22.5 15 22.5ZM13.95 18.45L10.7625 15.2625L11.8125 14.2125L13.95 16.35L21.45 8.83125L22.5 9.88125L13.95 18.45Z" fill="white"/>
</g>
</svg>
