<svg width="28" height="29" viewBox="0 0 28 29" fill="none" xmlns="http://www.w3.org/2000/svg">
<path d="M0 23.7244C0 25.183 0.512496 26.4248 1.53749 27.4498C2.56248 28.4748 3.80429 28.9873 5.26294 28.9873H22.7666C24.2056 28.9873 25.4375 28.4748 26.4625 27.4498C27.4875 26.4248 28 25.183 28 23.7244V16.1552L24.5111 19.0823V23.7244C24.5111 24.2172 24.3435 24.6311 24.0084 24.9662C23.6734 25.3013 23.2594 25.4787 22.7666 25.4984H5.26294C4.77015 25.4984 4.35621 25.321 4.02112 24.9662C3.68603 24.6114 3.51848 24.1974 3.51848 23.7244V6.22067C3.51848 5.7476 3.68603 5.33366 4.02112 4.97886C4.35621 4.62405 4.77015 4.45651 5.26294 4.47622H14.0148V0.987305H5.26294C3.80429 0.987305 2.56248 1.4998 1.53749 2.52479C0.512496 3.54978 0 4.78174 0 6.22067L0 23.7244ZM5.26294 18.491C5.26294 20.1862 5.59803 21.8124 6.26822 23.3696C6.5836 21.5561 7.2735 19.9102 8.33791 18.4319C9.40232 16.9535 10.723 15.761 12.2999 14.8543C13.8768 13.9475 15.6114 13.435 17.5037 13.3168V18.491L28 9.73915L17.5037 0.987305V6.22067C15.8479 6.22067 14.2612 6.54591 12.7434 7.19639C11.2256 7.84686 9.92467 8.72402 8.84055 9.82785C7.75642 10.9317 6.87927 12.2326 6.20908 13.7307C5.53889 15.2288 5.22351 16.8155 5.26294 18.491Z" fill="white"/>
</svg>
