<svg width="440" height="956" viewBox="0 0 440 956" fill="none" xmlns="http://www.w3.org/2000/svg">
<g clip-path="url(#clip0_97_267)">
<rect width="440" height="956" fill="#1D97D4"/>
<g opacity="0.1">
<path opacity="0.6" d="M85.5108 9.08258C72.8166 12.0033 59.6211 24.2165 59.6437 36.8803C52.2113 26.6269 30.9877 25.7336 19.0043 30.8405C-12.6181 44.3177 -10.7925 87.3971 11.6527 109.465C23.7329 121.342 38.4766 130.367 53.7766 137.8C66.5891 144.024 98.235 155.771 98.2894 155.678C98.3881 155.721 117.066 127.604 123.764 115.033C131.763 100.02 138.375 84.0484 141.155 67.3367C146.321 36.2873 119.01 1.37508 85.5108 9.08258Z" fill="white"/>
</g>
<g opacity="0.1">
<path opacity="0.6" d="M437.388 115.392C427.982 110.77 413.546 111.692 407.129 119.607C407.697 109.434 394.906 98.0999 384.834 95.2025C358.255 87.5566 337.521 115.369 340.323 140.538C341.832 154.084 346.45 167.203 352.225 179.61C357.061 190 370.846 213.4 370.927 213.37C370.967 213.446 396.9 205.383 407.463 200.938C420.078 195.631 432.314 189.02 442.535 180.002C461.524 163.247 462.208 127.592 437.388 115.392Z" fill="white"/>
</g>
<g opacity="0.1">
<path opacity="0.6" d="M258.388 248.392C248.982 243.77 234.546 244.692 228.129 252.607C228.697 242.434 215.906 231.1 205.834 228.203C179.255 220.557 158.521 248.369 161.323 273.538C162.832 287.084 167.45 300.203 173.225 312.61C178.061 323 191.846 346.4 191.927 346.37C191.967 346.446 217.9 338.383 228.463 333.938C241.078 328.631 253.314 322.02 263.535 313.002C282.524 296.247 283.208 260.592 258.388 248.392Z" fill="white"/>
</g>
<g opacity="0.1">
<path opacity="0.6" d="M85.9075 631.081C80.9978 626.794 72.1751 625.032 67.05 628.759C69.0228 622.738 63.1547 613.876 57.5675 610.519C42.8235 601.662 25.9038 615.048 23.5501 630.621C22.2836 639.003 22.9547 647.626 24.4343 656.008C25.6735 663.026 30.2036 679.298 30.2572 679.293C30.2692 679.345 47.1447 678.66 54.2053 677.684C62.6363 676.517 71.0491 674.508 78.6368 670.729C92.7349 663.707 98.8648 642.392 85.9075 631.081Z" fill="white"/>
</g>
<g opacity="0.1">
<path opacity="0.6" d="M407.756 622.596C397.561 621.838 384.832 627.93 381.908 637.43C378.717 628.017 363.014 622.419 352.844 623.465C326.007 626.226 317.372 658.946 329.074 680.703C335.373 692.413 344.331 702.602 354.075 711.728C362.235 719.369 383.233 735.524 383.295 735.467C383.36 735.522 403.891 718.78 411.832 710.91C421.314 701.513 429.98 691.074 435.945 679.191C447.028 657.112 434.661 624.597 407.756 622.596Z" fill="white"/>
</g>
<g opacity="0.1">
<path opacity="0.6" d="M218.605 799.823C207.382 803.361 196.371 815.304 197.298 826.709C189.87 818.006 170.693 818.72 160.266 824.177C132.751 838.577 137.477 877.243 159.27 895.513C171 905.345 184.923 912.418 199.234 918.017C211.218 922.706 240.559 931.021 240.602 930.933C240.694 930.964 255.503 904.307 260.637 892.505C266.766 878.413 271.578 863.555 272.886 848.306C275.317 819.973 248.223 790.484 218.605 799.823Z" fill="white"/>
</g>
<g clip-path="url(#clip1_97_267)">
<path d="M126 495.954C126 486.475 133.251 478.776 142.151 478.776C150.127 478.776 156.759 484.943 158.065 493.033H152.242C151.061 488.112 146.992 484.487 142.151 484.487C136.405 484.487 131.717 489.626 131.717 495.954C131.717 502.274 136.405 507.412 142.151 507.412C146.963 507.412 151.013 503.825 152.214 498.962H158.045C156.711 507.004 150.099 513.123 142.151 513.123C133.251 513.123 126 505.423 126 495.954Z" fill="white"/>
<path d="M163.155 513.153H156.822L169.859 478.839H175.871L188.86 513.153H182.527L179.207 503.848H166.505L163.155 513.153ZM168.643 497.915H177.088L172.885 486.14L168.643 497.915Z" fill="white"/>
<path d="M196.828 513.151H190.882V478.842H199.619L208.205 503.701L208.331 504.069L208.458 503.701L217.044 478.842H225.782V513.151H219.836V488.987L211.489 513.151H205.175L196.828 488.987V513.151Z" fill="white"/>
<path d="M236.182 513.106H230.242V478.838H236.182V478.841H246.992C252.234 478.841 256.497 483.334 256.497 488.858C256.497 494.38 252.233 498.875 246.992 498.875H236.182V513.106ZM236.182 484.552V493.164H246.992C249.081 493.164 250.78 491.232 250.78 488.858C250.78 486.484 249.081 484.552 246.992 484.552H236.182Z" fill="white"/>
<path d="M283.393 500.163C283.393 507.388 277.845 513.264 271.026 513.264C264.206 513.264 258.658 507.387 258.658 500.163V478.839H264.375V500.163C264.375 504.238 267.358 507.554 271.026 507.554C274.692 507.554 277.676 504.238 277.676 500.163V478.839H283.393V500.163Z" fill="white"/>
<path d="M286.289 488.968C286.289 486.712 287.394 484.276 289.252 482.429C290.892 480.792 293.864 478.841 298.677 478.841H298.724C302.774 478.85 305.956 480.097 308.187 482.553C311.13 485.788 311.312 489.977 311.264 491.508H305.538C305.566 491.128 305.652 488.225 303.928 486.369C302.832 485.17 301.069 484.561 298.715 484.551H298.677C295.819 484.551 294.17 485.598 293.284 486.473C292.408 487.349 292.008 488.358 292.008 488.957C292.008 489.976 292.008 491.498 298.62 493.649L299.802 494.021C305.072 495.705 311.037 497.609 311.389 502.843C311.446 503.728 311.446 506.84 308.93 509.524C306.701 511.912 303.318 513.121 298.868 513.121C298.859 513.121 298.849 513.121 298.849 513.121C295.229 513.121 292.103 511.904 289.806 509.581C287.538 507.307 286.261 504.109 286.299 500.816L292.017 500.883C291.998 502.625 292.683 504.386 293.865 505.566C295.085 506.794 296.753 507.412 298.849 507.412H298.859C301.622 507.412 303.661 506.793 304.747 505.632C305.758 504.547 305.692 503.281 305.682 503.224C305.596 501.863 300.507 500.246 298.068 499.465L296.857 499.075C289.357 496.639 286.289 493.717 286.289 488.968Z" fill="white"/>
<path d="M176.901 461.461C182.58 461.461 187.184 456.863 187.184 451.191C187.184 445.519 182.58 440.921 176.901 440.921C171.222 440.921 166.619 445.519 166.619 451.191C166.619 456.863 171.222 461.461 176.901 461.461Z" fill="white"/>
<path d="M260.492 438.662C266.205 438.662 270.836 434.037 270.836 428.331C270.836 422.625 266.205 418 260.492 418C254.78 418 250.148 422.625 250.148 428.331C250.148 434.037 254.78 438.662 260.492 438.662Z" fill="white"/>
<path d="M254.359 448.772C254.359 461.155 244.309 471.193 231.911 471.193C231.868 471.193 231.824 471.193 231.782 471.192C229.915 471.182 228.101 470.944 226.369 470.504V462.146C227.676 462.714 229.083 463.095 230.557 463.254C231.076 463.312 231.604 463.34 232.137 463.34C240.128 463.34 246.605 456.871 246.605 448.89C246.605 440.91 240.128 434.44 232.137 434.44C232.071 434.44 232.005 434.44 231.94 434.441C229.199 434.479 226.641 435.277 224.47 436.634C221.21 438.671 218.822 441.971 217.99 445.846C217.829 446.597 217.726 447.37 217.686 448.159L209.691 445.569C209.905 444.068 210.269 442.615 210.767 441.226C212.348 436.807 215.277 433.029 219.061 430.387C221.45 428.718 224.18 427.501 227.126 426.862C228.668 426.528 230.269 426.352 231.911 426.352C244.309 426.352 254.359 436.39 254.359 448.772Z" fill="white"/>
<path d="M232.926 447.059C232.721 448.033 232.454 448.984 232.127 449.908C230.566 454.326 227.659 458.111 223.899 460.771C221.498 462.47 218.749 463.709 215.78 464.363C214.213 464.708 212.585 464.89 210.916 464.89C198.496 464.89 188.427 454.834 188.427 442.429C188.427 430.229 198.166 420.302 210.303 419.978C210.506 419.972 210.711 419.97 210.916 419.97C212.859 419.97 214.744 420.216 216.543 420.679L216.64 429.15C215 428.501 213.212 428.144 211.341 428.144C210.623 428.144 209.917 428.196 209.228 428.297C202.286 429.319 196.958 435.292 196.958 442.509C196.958 450.32 203.199 456.674 210.972 456.87C211.094 456.872 211.218 456.874 211.341 456.874C214.114 456.874 216.704 456.09 218.9 454.732C222.177 452.707 224.579 449.404 225.408 445.519C225.551 444.851 225.646 444.166 225.692 443.467L232.926 447.059Z" fill="white"/>
<path d="M166.149 529.341C166.149 524.628 169.754 520.799 174.18 520.799C178.146 520.799 181.443 523.866 182.093 527.888H179.198C178.611 525.442 176.587 523.638 174.18 523.638C171.323 523.638 168.991 526.194 168.991 529.341C168.991 532.483 171.323 535.039 174.18 535.039C176.573 535.039 178.586 533.255 179.184 530.837H182.084C181.42 534.836 178.132 537.879 174.18 537.879C169.754 537.879 166.149 534.05 166.149 529.341Z" fill="white"/>
<path d="M198.954 529.338C198.954 534.049 195.351 537.881 190.922 537.881C186.493 537.881 182.891 534.049 182.891 529.338C182.891 525.401 185.409 522.077 188.822 521.094V524.124C187.004 525.012 185.734 527.014 185.734 529.338C185.734 532.484 188.061 535.041 190.922 535.041C193.783 535.041 196.111 532.484 196.111 529.338C196.111 527.131 194.965 525.213 193.292 524.266V521.176C196.567 522.254 198.954 525.505 198.954 529.338Z" fill="white"/>
<path d="M203.44 537.893H200.487V520.83H203.704L210.612 532.753V520.83H213.565V537.893H210.575L203.439 525.584V537.893H203.44Z" fill="white"/>
<path d="M218.718 537.893H215.764V520.83H218.982L225.889 532.753V520.83H228.843V537.893H225.853L218.717 525.584V537.893H218.718Z" fill="white"/>
<path d="M242.437 537.893H231.041V520.83H242.437V523.304H233.995V527.887H241.481V530.837H233.995V535.42H242.437V537.893Z" fill="white"/>
<path d="M243.171 529.341C243.171 524.628 246.776 520.799 251.202 520.799C255.168 520.799 258.465 523.866 259.115 527.888H256.22C255.632 525.442 253.608 523.638 251.202 523.638C248.345 523.638 246.013 526.194 246.013 529.341C246.013 532.483 248.345 535.039 251.202 535.039C253.595 535.039 255.608 533.255 256.205 530.837H259.105C258.442 534.836 255.154 537.879 251.202 537.879C246.776 537.879 243.171 534.05 243.171 529.341Z" fill="white"/>
<path d="M264.635 523.781H259.058V520.831H273.218V523.781H267.589V537.996H264.635V523.781Z" fill="white"/>
<path d="M192.398 517.767H189.716V527.41H192.398V517.767Z" fill="white"/>
<path d="M128.733 531.16H160.752V526.696H128.733C128.148 526.696 127.675 527.169 127.675 527.752V530.103C127.675 530.687 128.149 531.16 128.733 531.16Z" fill="white"/>
<path d="M312.815 531.517H279.47V526.696H312.815C313.456 526.696 313.977 527.215 313.977 527.856V530.356C313.977 530.997 313.456 531.517 312.815 531.517Z" fill="white"/>
</g>
</g>
<defs>
<clipPath id="clip0_97_267">
<rect width="440" height="956" fill="white"/>
</clipPath>
<clipPath id="clip1_97_267">
<rect width="188" height="120" fill="white" transform="translate(126 418)"/>
</clipPath>
</defs>
</svg>
