<svg width="114" height="40" viewBox="0 0 114 40" fill="none" xmlns="http://www.w3.org/2000/svg">
<g filter="url(#filter0_d_702_909)">
<rect x="4" y="4" width="106" height="32" rx="16" fill="#F8F2F8" shape-rendering="crispEdges"/>
<mask id="mask0_702_909" style="mask-type:alpha" maskUnits="userSpaceOnUse" x="17" y="11" width="18" height="18">
<rect x="17" y="11" width="18" height="18" fill="#D9D9D9"/>
</mask>
<g mask="url(#mask0_702_909)">
<path d="M18.5 26.75V25.25C18.975 25.25 19.3313 25.125 19.5688 24.875C19.8063 24.625 20.275 24.5 20.975 24.5C21.675 24.5 22.1562 24.625 22.4187 24.875C22.6813 25.125 23.0375 25.25 23.4875 25.25C23.9375 25.25 24.2937 25.125 24.5562 24.875C24.8187 24.625 25.3 24.5 26 24.5C26.7 24.5 27.1813 24.625 27.4438 24.875C27.7063 25.125 28.0625 25.25 28.5125 25.25C28.9625 25.25 29.3188 25.125 29.5813 24.875C29.8438 24.625 30.325 24.5 31.025 24.5C31.725 24.5 32.1938 24.625 32.4313 24.875C32.6688 25.125 33.025 25.25 33.5 25.25V26.75C32.7625 26.75 32.2781 26.625 32.0469 26.375C31.8156 26.125 31.475 26 31.025 26C30.575 26 30.2188 26.125 29.9563 26.375C29.6938 26.625 29.2125 26.75 28.5125 26.75C27.8125 26.75 27.3313 26.625 27.0688 26.375C26.8063 26.125 26.45 26 26 26C25.55 26 25.1937 26.125 24.9312 26.375C24.6687 26.625 24.1875 26.75 23.4875 26.75C22.7875 26.75 22.3062 26.625 22.0437 26.375C21.7812 26.125 21.425 26 20.975 26C20.525 26 20.1844 26.125 19.9531 26.375C19.7219 26.625 19.2375 26.75 18.5 26.75ZM18.5 23.375V21.875C18.975 21.875 19.3313 21.75 19.5688 21.5C19.8063 21.25 20.275 21.125 20.975 21.125C21.675 21.125 22.1594 21.25 22.4281 21.5C22.6969 21.75 23.05 21.875 23.4875 21.875C23.9375 21.875 24.2937 21.75 24.5562 21.5C24.8187 21.25 25.3 21.125 26 21.125C26.7 21.125 27.1813 21.25 27.4438 21.5C27.7063 21.75 28.0625 21.875 28.5125 21.875C28.9625 21.875 29.3188 21.75 29.5813 21.5C29.8438 21.25 30.325 21.125 31.025 21.125C31.725 21.125 32.1938 21.25 32.4313 21.5C32.6688 21.75 33.025 21.875 33.5 21.875V23.375C32.7625 23.375 32.2781 23.25 32.0469 23C31.8156 22.75 31.475 22.625 31.025 22.625C30.575 22.625 30.2281 22.75 29.9844 23C29.7406 23.25 29.25 23.375 28.5125 23.375C27.8 23.375 27.3156 23.25 27.0594 23C26.8031 22.75 26.45 22.625 26 22.625C25.525 22.625 25.1719 22.75 24.9406 23C24.7094 23.25 24.225 23.375 23.4875 23.375C22.75 23.375 22.2594 23.25 22.0156 23C21.7719 22.75 21.425 22.625 20.975 22.625C20.525 22.625 20.1844 22.75 19.9531 23C19.7219 23.25 19.2375 23.375 18.5 23.375ZM22.175 19.55L24.6688 17.0563L23.9187 16.3063C23.5062 15.8938 23.0687 15.5938 22.6062 15.4062C22.1437 15.2188 21.575 15.125 20.9 15.125V13.25C21.8375 13.25 22.6125 13.3531 23.225 13.5594C23.8375 13.7656 24.4375 14.1625 25.025 14.75L29.825 19.55C29.6125 19.6875 29.4062 19.7969 29.2063 19.8781C29.0063 19.9594 28.775 20 28.5125 20C28.0625 20 27.7063 19.875 27.4438 19.625C27.1813 19.375 26.7 19.25 26 19.25C25.3 19.25 24.8187 19.375 24.5562 19.625C24.2937 19.875 23.9375 20 23.4875 20C23.225 20 22.9938 19.9594 22.7937 19.8781C22.5938 19.7969 22.3875 19.6875 22.175 19.55ZM29.525 13.25C30.05 13.25 30.4938 13.4344 30.8563 13.8031C31.2188 14.1719 31.4 14.6125 31.4 15.125C31.4 15.65 31.2188 16.0938 30.8563 16.4563C30.4938 16.8188 30.05 17 29.525 17C29 17 28.5563 16.8188 28.1938 16.4563C27.8313 16.0938 27.65 15.65 27.65 15.125C27.65 14.6125 27.8313 14.1719 28.1938 13.8031C28.5563 13.4344 29 13.25 29.525 13.25Z" fill="black"/>
</g>
<path d="M46.6719 17.9929C46.6188 17.5223 46.4001 17.1577 46.0156 16.8991C45.6312 16.6373 45.1473 16.5064 44.5639 16.5064C44.1463 16.5064 43.785 16.5727 43.4801 16.7053C43.1752 16.8345 42.9382 17.0135 42.7692 17.2422C42.6035 17.4676 42.5206 17.7244 42.5206 18.0128C42.5206 18.2547 42.5769 18.4635 42.6896 18.6392C42.8056 18.8149 42.9564 18.9624 43.142 19.0817C43.331 19.1977 43.5331 19.2955 43.7486 19.375C43.964 19.4512 44.1712 19.5142 44.37 19.5639L45.3643 19.8224C45.6892 19.902 46.0223 20.0097 46.3636 20.1456C46.705 20.2815 47.0215 20.4605 47.3132 20.6825C47.6049 20.9046 47.8402 21.1797 48.0192 21.5078C48.2015 21.8359 48.2926 22.2287 48.2926 22.6861C48.2926 23.2628 48.1435 23.7749 47.8452 24.2223C47.5502 24.6697 47.121 25.0227 46.5575 25.2812C45.9974 25.5398 45.3196 25.669 44.5241 25.669C43.7618 25.669 43.1023 25.5481 42.5455 25.3061C41.9886 25.0642 41.5528 24.7211 41.2379 24.277C40.9231 23.8295 40.7491 23.2992 40.7159 22.6861H42.2571C42.2869 23.054 42.4063 23.3606 42.6151 23.6058C42.8272 23.8478 43.0973 24.0284 43.4254 24.1477C43.7569 24.2637 44.1198 24.3217 44.5142 24.3217C44.9484 24.3217 45.3345 24.2538 45.6726 24.1179C46.014 23.9787 46.2824 23.7865 46.478 23.5412C46.6735 23.2926 46.7713 23.0026 46.7713 22.6712C46.7713 22.3696 46.6851 22.1226 46.5128 21.9304C46.3438 21.7382 46.1134 21.5791 45.8217 21.4531C45.5334 21.3272 45.2069 21.2161 44.8423 21.12L43.6392 20.7919C42.8239 20.5698 42.1776 20.2434 41.7003 19.8125C41.2263 19.3816 40.9893 18.8116 40.9893 18.1023C40.9893 17.5156 41.1484 17.0036 41.4666 16.5661C41.7848 16.1286 42.2157 15.7888 42.7592 15.5469C43.3028 15.3016 43.916 15.179 44.5987 15.179C45.2881 15.179 45.8963 15.3 46.4233 15.5419C46.9536 15.7839 47.3712 16.117 47.6761 16.5412C47.9811 16.9621 48.1402 17.446 48.1534 17.9929H46.6719ZM51.6646 25.5L49.4174 17.8636H50.9537L52.4501 23.4716H52.5247L54.0261 17.8636H55.5623L57.0538 23.4467H57.1284L58.6149 17.8636H60.1511L57.9089 25.5H56.3926L54.8414 19.9865H54.7271L53.176 25.5H51.6646ZM61.5618 25.5V17.8636H63.0483V25.5H61.5618ZM62.3125 16.6854C62.054 16.6854 61.8319 16.5992 61.6463 16.4268C61.464 16.2512 61.3729 16.0424 61.3729 15.8004C61.3729 15.5552 61.464 15.3464 61.6463 15.174C61.8319 14.9983 62.054 14.9105 62.3125 14.9105C62.571 14.9105 62.7914 14.9983 62.9737 15.174C63.1593 15.3464 63.2521 15.5552 63.2521 15.8004C63.2521 16.0424 63.1593 16.2512 62.9737 16.4268C62.7914 16.5992 62.571 16.6854 62.3125 16.6854ZM65.0481 25.5V17.8636H66.475V19.1065H66.5694C66.7285 18.6856 66.9887 18.3575 67.35 18.1222C67.7112 17.8835 68.1438 17.7642 68.6475 17.7642C69.158 17.7642 69.5855 17.8835 69.9302 18.1222C70.2782 18.3608 70.5351 18.6889 70.7008 19.1065H70.7804C70.9627 18.6989 71.2527 18.3741 71.6504 18.1321C72.0481 17.8868 72.5221 17.7642 73.0723 17.7642C73.765 17.7642 74.3301 17.9813 74.7676 18.4155C75.2084 18.8497 75.4288 19.5043 75.4288 20.3793V25.5H73.9423V20.5185C73.9423 20.0014 73.8014 19.6269 73.5197 19.3949C73.238 19.1629 72.9016 19.0469 72.5105 19.0469C72.0266 19.0469 71.6504 19.196 71.3819 19.4943C71.1135 19.7893 70.9792 20.1688 70.9792 20.6328V25.5H69.4977V20.424C69.4977 20.0097 69.3684 19.6766 69.1099 19.4247C68.8514 19.1728 68.515 19.0469 68.1007 19.0469C67.819 19.0469 67.5588 19.1214 67.3201 19.2706C67.0848 19.4164 66.8942 19.6203 66.7484 19.8821C66.6059 20.1439 66.5346 20.4472 66.5346 20.7919V25.5H65.0481ZM77.4212 25.5V17.8636H78.9077V25.5H77.4212ZM78.1719 16.6854C77.9134 16.6854 77.6913 16.5992 77.5057 16.4268C77.3234 16.2512 77.2322 16.0424 77.2322 15.8004C77.2322 15.5552 77.3234 15.3464 77.5057 15.174C77.6913 14.9983 77.9134 14.9105 78.1719 14.9105C78.4304 14.9105 78.6508 14.9983 78.8331 15.174C79.0187 15.3464 79.1115 15.5552 79.1115 15.8004C79.1115 16.0424 79.0187 16.2512 78.8331 16.4268C78.6508 16.5992 78.4304 16.6854 78.1719 16.6854ZM82.394 20.9659V25.5H80.9075V17.8636H82.3343V19.1065H82.4288C82.6045 18.7022 82.8796 18.3774 83.2541 18.1321C83.6319 17.8868 84.1075 17.7642 84.6809 17.7642C85.2013 17.7642 85.657 17.8736 86.0481 18.0923C86.4392 18.3078 86.7425 18.6293 86.9579 19.0568C87.1734 19.4844 87.2811 20.013 87.2811 20.6428V25.5H85.7946V20.8217C85.7946 20.2682 85.6504 19.8357 85.362 19.5241C85.0737 19.2093 84.6776 19.0518 84.1738 19.0518C83.8291 19.0518 83.5225 19.1264 83.2541 19.2756C82.9889 19.4247 82.7785 19.6435 82.6227 19.9318C82.4702 20.2169 82.394 20.5616 82.394 20.9659ZM92.4764 28.5227C91.8699 28.5227 91.3478 28.4432 90.9103 28.2841C90.4761 28.125 90.1215 27.9145 89.8464 27.6527C89.5713 27.3909 89.3658 27.1042 89.2299 26.7926L90.5076 26.2656C90.5971 26.4115 90.7164 26.5656 90.8656 26.728C91.0181 26.8937 91.2235 27.0346 91.4821 27.1506C91.7439 27.2666 92.0803 27.3246 92.4913 27.3246C93.0547 27.3246 93.5204 27.187 93.8883 26.9119C94.2562 26.6402 94.4402 26.206 94.4402 25.6094V24.108H94.3457C94.2562 24.2704 94.127 24.451 93.9579 24.6499C93.7922 24.8487 93.5635 25.0211 93.2718 25.1669C92.9802 25.3127 92.6007 25.3857 92.1333 25.3857C91.5301 25.3857 90.9866 25.2448 90.5027 24.9631C90.0221 24.678 89.6409 24.2588 89.3592 23.7053C89.0808 23.1484 88.9416 22.464 88.9416 21.652C88.9416 20.84 89.0791 20.1439 89.3542 19.5639C89.6326 18.9839 90.0138 18.5398 90.4977 18.2315C90.9816 17.92 91.5301 17.7642 92.1433 17.7642C92.6172 17.7642 93.0001 17.8438 93.2917 18.0028C93.5834 18.1586 93.8104 18.3409 93.9728 18.5497C94.1386 18.7585 94.2662 18.9425 94.3556 19.1016H94.465V17.8636H95.9217V25.669C95.9217 26.3253 95.7692 26.8639 95.4643 27.2848C95.1594 27.7057 94.7467 28.0173 94.2264 28.2195C93.7093 28.4216 93.126 28.5227 92.4764 28.5227ZM92.4615 24.1527C92.889 24.1527 93.2503 24.0533 93.5453 23.8544C93.8436 23.6522 94.069 23.3639 94.2214 22.9893C94.3772 22.6115 94.4551 22.1591 94.4551 21.6321C94.4551 21.1184 94.3788 20.666 94.2264 20.2749C94.0739 19.8838 93.8502 19.5788 93.5552 19.3601C93.2602 19.138 92.8957 19.027 92.4615 19.027C92.014 19.027 91.6412 19.143 91.3429 19.375C91.0446 19.6037 90.8192 19.9152 90.6667 20.3097C90.5176 20.7041 90.443 21.1449 90.443 21.6321C90.443 22.1326 90.5192 22.5717 90.6717 22.9496C90.8242 23.3274 91.0495 23.6224 91.3478 23.8345C91.6494 24.0466 92.0207 24.1527 92.4615 24.1527Z" fill="black"/>
</g>
<defs>
<filter id="filter0_d_702_909" x="0" y="0" width="114" height="40" filterUnits="userSpaceOnUse" color-interpolation-filters="sRGB">
<feFlood flood-opacity="0" result="BackgroundImageFix"/>
<feColorMatrix in="SourceAlpha" type="matrix" values="0 0 0 0 0 0 0 0 0 0 0 0 0 0 0 0 0 0 127 0" result="hardAlpha"/>
<feOffset/>
<feGaussianBlur stdDeviation="2"/>
<feComposite in2="hardAlpha" operator="out"/>
<feColorMatrix type="matrix" values="0 0 0 0 0 0 0 0 0 0 0 0 0 0 0 0 0 0 0.25 0"/>
<feBlend mode="normal" in2="BackgroundImageFix" result="effect1_dropShadow_702_909"/>
<feBlend mode="normal" in="SourceGraphic" in2="effect1_dropShadow_702_909" result="shape"/>
</filter>
</defs>
</svg>
